<?xml version="1.0" encoding="UTF-8"?>
<!DOCTYPE svg PUBLIC "-//W3C//DTD SVG 1.1//EN" "http://www.w3.org/Graphics/SVG/1.1/DTD/svg11.dtd">
<svg xmlns="http://www.w3.org/2000/svg" version="1.1" width="80px" height="80px" style="shape-rendering:geometricPrecision; text-rendering:geometricPrecision; image-rendering:optimizeQuality; fill-rule:evenodd; clip-rule:evenodd" xmlns:xlink="http://www.w3.org/1999/xlink">
<g><path style="opacity:0.004" fill="#111d28" d="M 46.5,5.5 C 47.4971,4.28749 48.4971,4.45415 49.5,6C 48.9056,6.46434 48.2389,6.63101 47.5,6.5C 47.5,5.83333 47.1667,5.5 46.5,5.5 Z"/></g>
<g><path style="opacity:1" fill="#f0d2d7" d="M 51.5,17.5 C 51.7525,20.3198 51.2525,22.9865 50,25.5C 47.3248,29.0053 44.4915,32.3386 41.5,35.5C 40.3486,30.8329 40.3486,26.1662 41.5,21.5C 40.5,21.5 39.5,21.5 38.5,21.5C 39.5974,26.3208 39.5974,30.9874 38.5,35.5C 36.9826,35.4894 35.8159,34.8228 35,33.5C 33.3015,30.079 31.1348,27.079 28.5,24.5C 26.7238,16.0524 29.7238,10.0524 37.5,6.5C 39.0583,11.6945 40.0583,11.6945 40.5,6.5C 46.4676,7.80088 50.1343,11.4675 51.5,17.5 Z"/></g>
<g><path style="opacity:0.012" fill="#17353d" d="M 58.5,18.5 C 57.209,18.2627 56.209,18.596 55.5,19.5C 54.4738,15.2699 54.4738,14.6032 55.5,17.5C 56.791,17.2627 57.791,17.596 58.5,18.5 Z"/></g>
<g><path style="opacity:1" fill="#2d4456" d="M 21.5,19.5 C 19.8008,19.3398 18.1341,19.5065 16.5,20C 18.0581,20.21 19.3915,20.71 20.5,21.5C 15.7196,20.7417 11.7196,22.075 8.5,25.5C 9.09001,26.7989 10.09,27.6322 11.5,28C 9.86586,28.4935 8.19919,28.6602 6.5,28.5C 6.72088,36.2947 10.3875,41.628 17.5,44.5C 17.8417,45.3382 18.5084,45.6716 19.5,45.5C 16.8947,47.337 14.728,49.6703 13,52.5C 12.502,55.4816 12.3354,58.4816 12.5,61.5C 11.6981,60.0484 11.1981,58.3817 11,56.5C 10.5065,58.1341 10.3398,59.8008 10.5,61.5C 9.53862,59.7354 9.20528,57.7354 9.5,55.5C 10.8139,52.8721 12.1473,50.2054 13.5,47.5C 15.9327,46.4523 15.9327,45.7856 13.5,45.5C 9.78812,42.7891 6.78812,39.4558 4.5,35.5C 4.24401,31.7307 4.57734,28.0641 5.5,24.5C 6.16667,24.5 6.5,24.1667 6.5,23.5C 7.16667,23.5 7.5,23.1667 7.5,22.5C 8.16667,22.5 8.5,22.1667 8.5,21.5C 12.6686,18.7626 17.002,18.0959 21.5,19.5 Z"/></g>
<g><path style="opacity:0.012" fill="#120f40" d="M 8.5,21.5 C 7.83333,21.5 7.5,21.8333 7.5,22.5C 6.83333,22.5 6.5,22.8333 6.5,23.5C 5.83333,23.5 5.5,23.8333 5.5,24.5C 4.4925,22.732 5.15917,21.3987 7.5,20.5C 8.10667,20.6236 8.44001,20.9569 8.5,21.5 Z"/></g>
<g><path style="opacity:1" fill="#243c52" d="M 46.5,5.5 C 47.1667,5.5 47.5,5.83333 47.5,6.5C 51.4118,10.3236 53.7452,14.9902 54.5,20.5C 55.1067,20.3764 55.44,20.0431 55.5,19.5C 56.791,19.7373 57.791,19.404 58.5,18.5C 69.3607,17.747 75.0274,22.747 75.5,33.5C 74.596,34.209 74.2627,35.209 74.5,36.5C 73.6618,36.8417 73.3284,37.5084 73.5,38.5C 72.6618,38.8417 72.3284,39.5084 72.5,40.5C 71.8333,40.5 71.5,40.8333 71.5,41.5C 70.8333,41.5 70.5,41.8333 70.5,42.5C 69.8333,42.5 69.5,42.8333 69.5,43.5C 68.8333,43.5 68.5,43.8333 68.5,44.5C 67.5084,44.3284 66.8417,44.6618 66.5,45.5C 64.847,45.6596 63.5137,46.3263 62.5,47.5C 59.1469,47.3453 58.8136,48.0119 61.5,49.5C 61.5,50.1667 61.8333,50.5 62.5,50.5C 62.8751,52.6976 63.5418,54.6976 64.5,56.5C 64.7845,58.4147 64.4511,60.0813 63.5,61.5C 62.8333,62.5 62.1667,63.5 61.5,64.5C 62.9897,55.8188 59.9897,49.4855 52.5,45.5C 53.4916,45.6716 54.1583,45.3382 54.5,44.5C 66.0349,45.9558 72.0349,40.9558 72.5,29.5C 71.1779,29.33 70.0113,29.6634 69,30.5C 69.1519,28.9239 69.9852,27.5905 71.5,26.5C 70.3067,24.4733 68.64,22.9733 66.5,22C 62.4631,21.3933 58.4631,21.56 54.5,22.5C 52.9724,21.1979 51.9724,19.5313 51.5,17.5C 50.1343,11.4675 46.4676,7.80088 40.5,6.5C 40.0583,11.6945 39.0583,11.6945 37.5,6.5C 29.7238,10.0524 26.7238,16.0524 28.5,24.5C 26.0722,22.9565 23.4056,21.9565 20.5,21.5C 19.3915,20.71 18.0581,20.21 16.5,20C 18.1341,19.5065 19.8008,19.3398 21.5,19.5C 24.5983,19.5875 24.9316,19.0875 22.5,18C 23.9675,16.9025 24.8008,15.4025 25,13.5C 25.3333,15.1667 25.6667,16.8333 26,18.5C 26.8748,9.95861 31.5415,4.95861 40,3.5C 42.2261,4.0329 44.3927,4.69957 46.5,5.5 Z"/></g>
<g><path style="opacity:1" fill="#f1d7db" d="M 20.5,21.5 C 23.4056,21.9565 26.0722,22.9565 28.5,24.5C 29.9363,28.9566 32.2696,32.9566 35.5,36.5C 34.277,37.6139 32.9437,37.7805 31.5,37C 28.1236,35.9502 25.1236,34.4502 22.5,32.5C 22.9175,31.7784 23.5842,31.2784 24.5,31C 22.5559,29.5795 20.7226,28.0795 19,26.5C 16.5409,26.8902 14.8743,28.2235 14,30.5C 13.6667,29.5 13.3333,28.5 13,27.5C 11.951,29.1066 10.451,29.7733 8.5,29.5C 8.79362,32.7541 10.127,35.4208 12.5,37.5C 15.0177,40.2564 18.0177,42.2564 21.5,43.5C 20.2921,44.2341 18.9587,44.5674 17.5,44.5C 10.3875,41.628 6.72088,36.2947 6.5,28.5C 8.19919,28.6602 9.86586,28.4935 11.5,28C 10.09,27.6322 9.09001,26.7989 8.5,25.5C 11.7196,22.075 15.7196,20.7417 20.5,21.5 Z"/></g>
<g><path style="opacity:1" fill="#f4d5da" d="M 54.5,44.5 C 51.5431,43.3448 48.5431,42.3448 45.5,41.5C 44.9569,41.44 44.6236,41.1067 44.5,40.5C 48.3208,37.5601 52.6541,36.2268 57.5,36.5C 57.762,35.0222 57.4287,33.6888 56.5,32.5C 52.6607,35.8942 48.3274,37.2276 43.5,36.5C 46.693,31.44 50.3596,26.7733 54.5,22.5C 58.4631,21.56 62.4631,21.3933 66.5,22C 68.64,22.9733 70.3067,24.4733 71.5,26.5C 69.9852,27.5905 69.1519,28.9239 69,30.5C 70.0113,29.6634 71.1779,29.33 72.5,29.5C 72.0349,40.9558 66.0349,45.9558 54.5,44.5 Z"/></g>
<g><path style="opacity:1" fill="#fed6db" d="M 22.5,32.5 C 21.448,32.3505 20.448,32.5172 19.5,33C 19.5544,34.3509 19.0544,35.5176 18,36.5C 17.1268,36.2645 16.2935,35.9312 15.5,35.5C 14.7348,36.6119 13.7348,37.2786 12.5,37.5C 10.127,35.4208 8.79362,32.7541 8.5,29.5C 10.451,29.7733 11.951,29.1066 13,27.5C 13.3333,28.5 13.6667,29.5 14,30.5C 14.8743,28.2235 16.5409,26.8902 19,26.5C 20.7226,28.0795 22.5559,29.5795 24.5,31C 23.5842,31.2784 22.9175,31.7784 22.5,32.5 Z"/></g>
<g><path style="opacity:0.012" fill="#1c3e64" d="M 76.5,33.5 C 76.3398,31.8008 76.5065,30.1341 77,28.5C 77.7796,30.3869 77.6129,32.0536 76.5,33.5 Z"/></g>
<g><path style="opacity:0.016" fill="#0d272c" d="M 3.5,35.5 C 2.35916,32.3601 2.1925,29.0267 3,25.5C 3.49834,28.8168 3.66501,32.1501 3.5,35.5 Z"/></g>
<g><path style="opacity:1" fill="#f8d3da" d="M 22.5,32.5 C 22.5,33.8333 22.5,35.1667 22.5,36.5C 26.7686,36.7339 30.7686,37.9006 34.5,40C 30.0736,40.9565 25.7402,42.1231 21.5,43.5C 18.0177,42.2564 15.0177,40.2564 12.5,37.5C 13.7348,37.2786 14.7348,36.6119 15.5,35.5C 16.2935,35.9312 17.1268,36.2645 18,36.5C 19.0544,35.5176 19.5544,34.3509 19.5,33C 20.448,32.5172 21.448,32.3505 22.5,32.5 Z"/></g>
<g><path style="opacity:0.008" fill="#006969" d="M 3.5,35.5 C 3.83333,35.5 4.16667,35.5 4.5,35.5C 4.16667,38.1667 3.83333,38.1667 3.5,35.5 Z"/></g>
<g><path style="opacity:0.004" fill="#0c1d1d" d="M 75.5,33.5 C 75.8333,33.5 76.1667,33.5 76.5,33.5C 76.8799,35.698 76.2132,37.3646 74.5,38.5C 74.5,37.8333 74.5,37.1667 74.5,36.5C 75.404,35.791 75.7373,34.791 75.5,33.5 Z"/></g>
<g><path style="opacity:1" fill="#25344d" d="M 28.5,24.5 C 31.1348,27.079 33.3015,30.079 35,33.5C 35.8159,34.8228 36.9826,35.4894 38.5,35.5C 38.1667,36.1667 37.8333,36.8333 37.5,37.5C 35.7317,41.4109 37.065,43.0776 41.5,42.5C 41.0825,43.2216 40.4158,43.7216 39.5,44C 41.9793,44.3619 43.9793,43.5286 45.5,41.5C 48.5431,42.3448 51.5431,43.3448 54.5,44.5C 54.1583,45.3382 53.4916,45.6716 52.5,45.5C 50.772,44.621 48.9386,43.9543 47,43.5C 46.1667,43.8333 45.3333,44.1667 44.5,44.5C 46.2519,47.672 48.2519,50.672 50.5,53.5C 49.3112,54.4287 47.9778,54.762 46.5,54.5C 46.6987,49.8659 44.6987,46.8659 40.5,45.5C 39.3992,50.773 38.7325,56.1063 38.5,61.5C 37.8333,60.5 37.1667,59.5 36.5,58.5C 37.1294,54.3417 37.796,50.1751 38.5,46C 38.1667,45.5 37.8333,45 37.5,44.5C 34.8136,46.8558 32.147,49.1891 29.5,51.5C 30.713,48.7746 32.5464,46.4412 35,44.5C 35.5908,43.5165 35.2575,42.8499 34,42.5C 29.1048,43.2699 24.2715,44.2699 19.5,45.5C 18.5084,45.6716 17.8417,45.3382 17.5,44.5C 18.9587,44.5674 20.2921,44.2341 21.5,43.5C 25.7402,42.1231 30.0736,40.9565 34.5,40C 30.7686,37.9006 26.7686,36.7339 22.5,36.5C 22.5,35.1667 22.5,33.8333 22.5,32.5C 25.1236,34.4502 28.1236,35.9502 31.5,37C 32.9437,37.7805 34.277,37.6139 35.5,36.5C 32.2696,32.9566 29.9363,28.9566 28.5,24.5 Z"/></g>
<g><path style="opacity:1" fill="#15273f" d="M 51.5,17.5 C 51.9724,19.5313 52.9724,21.1979 54.5,22.5C 50.3596,26.7733 46.693,31.44 43.5,36.5C 48.3274,37.2276 52.6607,35.8942 56.5,32.5C 57.4287,33.6888 57.762,35.0222 57.5,36.5C 52.6541,36.2268 48.3208,37.5601 44.5,40.5C 44.6236,41.1067 44.9569,41.44 45.5,41.5C 43.9793,43.5286 41.9793,44.3619 39.5,44C 40.4158,43.7216 41.0825,43.2216 41.5,42.5C 43.3607,38.6718 42.0274,37.0051 37.5,37.5C 37.8333,36.8333 38.1667,36.1667 38.5,35.5C 39.5974,30.9874 39.5974,26.3208 38.5,21.5C 39.5,21.5 40.5,21.5 41.5,21.5C 40.3486,26.1662 40.3486,30.8329 41.5,35.5C 44.4915,32.3386 47.3248,29.0053 50,25.5C 51.2525,22.9865 51.7525,20.3198 51.5,17.5 Z"/></g>
<g><path style="opacity:1" fill="#e3e2e4" d="M 37.5,37.5 C 42.0274,37.0051 43.3607,38.6718 41.5,42.5C 37.065,43.0776 35.7317,41.4109 37.5,37.5 Z"/></g>
<g><path style="opacity:0.012" fill="#0e3939" d="M 73.5,38.5 C 73.8333,38.5 74.1667,38.5 74.5,38.5C 74.6716,39.4916 74.3382,40.1583 73.5,40.5C 73.5,39.8333 73.5,39.1667 73.5,38.5 Z"/></g>
<g><path style="opacity:0.016" fill="#00403f" d="M 72.5,40.5 C 72.8333,40.5 73.1667,40.5 73.5,40.5C 73.3147,41.1701 72.9813,41.1701 72.5,40.5 Z"/></g>
<g><path style="opacity:0.02" fill="#003332" d="M 71.5,41.5 C 71.8333,41.5 72.1667,41.5 72.5,41.5C 72.3147,42.1701 71.9813,42.1701 71.5,41.5 Z"/></g>
<g><path style="opacity:0.02" fill="#003332" d="M 70.5,42.5 C 70.8333,42.5 71.1667,42.5 71.5,42.5C 71.3147,43.1701 70.9813,43.1701 70.5,42.5 Z"/></g>
<g><path style="opacity:0.02" fill="#003332" d="M 69.5,43.5 C 69.8333,43.5 70.1667,43.5 70.5,43.5C 70.3147,44.1701 69.9813,44.1701 69.5,43.5 Z"/></g>
<g><path style="opacity:0.016" fill="#00403f" d="M 68.5,44.5 C 68.8333,44.5 69.1667,44.5 69.5,44.5C 69.3147,45.1701 68.9813,45.1701 68.5,44.5 Z"/></g>
<g><path style="opacity:0.012" fill="#3c4b7d" d="M 13.5,45.5 C 13.5,46.1667 13.5,46.8333 13.5,47.5C 11.0673,46.4523 11.0673,45.7856 13.5,45.5 Z"/></g>
<g><path style="opacity:0.008" fill="#000071" d="M 66.5,46.5 C 66.5,46.1667 66.5,45.8333 66.5,45.5C 67.1667,45.5 67.8333,45.5 68.5,45.5C 68.1583,46.3382 67.4916,46.6716 66.5,46.5 Z"/></g>
<g><path style="opacity:1" fill="#f1dddf" d="M 29.5,51.5 C 28.5,51.5 27.5,51.5 26.5,51.5C 26.5,52.5 26.5,53.5 26.5,54.5C 25.5,54.5 24.5,54.5 23.5,54.5C 23.733,49.2838 21.8997,47.9505 18,50.5C 14.5566,54.7209 13.7233,59.3876 15.5,64.5C 15.44,65.0431 15.1067,65.3764 14.5,65.5C 13.2949,64.4231 12.6282,63.0898 12.5,61.5C 12.3354,58.4816 12.502,55.4816 13,52.5C 14.728,49.6703 16.8947,47.337 19.5,45.5C 24.2715,44.2699 29.1048,43.2699 34,42.5C 35.2575,42.8499 35.5908,43.5165 35,44.5C 32.5464,46.4412 30.713,48.7746 29.5,51.5 Z"/></g>
<g><path style="opacity:0.016" fill="#00403f" d="M 66.5,46.5 C 65.8333,47.1667 65.8333,47.1667 66.5,46.5 Z"/></g>
<g><path style="opacity:0.006" fill="#0e1d2b" d="M 62.5,47.5 C 64.5567,47.9567 64.5567,48.9567 62.5,50.5C 61.8333,50.5 61.5,50.1667 61.5,49.5C 61.8333,48.8333 62.1667,48.1667 62.5,47.5 Z"/></g>
<g><path style="opacity:1" fill="#f6d2d7" d="M 36.5,58.5 C 33.6417,62.5196 29.975,65.6862 25.5,68C 22.8333,68.6667 20.1667,68.6667 17.5,68C 16.5004,65.9093 17.1671,64.2426 19.5,63C 17.9343,62.7003 16.601,63.2003 15.5,64.5C 13.7233,59.3876 14.5566,54.7209 18,50.5C 21.8997,47.9505 23.733,49.2838 23.5,54.5C 24.5,54.5 25.5,54.5 26.5,54.5C 27.5,54.5 28.5,54.5 29.5,54.5C 29.5,53.5 29.5,52.5 29.5,51.5C 32.147,49.1891 34.8136,46.8558 37.5,44.5C 37.8333,45 38.1667,45.5 38.5,46C 37.796,50.1751 37.1294,54.3417 36.5,58.5 Z"/></g>
<g><path style="opacity:1" fill="#0a1737" d="M 29.5,51.5 C 29.5,52.5 29.5,53.5 29.5,54.5C 28.5,54.5 27.5,54.5 26.5,54.5C 26.5,53.5 26.5,52.5 26.5,51.5C 27.5,51.5 28.5,51.5 29.5,51.5 Z"/></g>
<g><path style="opacity:0.016" fill="#2e4a4a" d="M 9.5,55.5 C 9.16667,55.5 8.83333,55.5 8.5,55.5C 8.83333,51.5 9.16667,51.5 9.5,55.5 Z"/></g>
<g><path style="opacity:1" fill="#f4d3d9" d="M 52.5,45.5 C 59.9897,49.4855 62.9897,55.8188 61.5,64.5C 60.2876,65.2299 59.2876,66.2299 58.5,67.5C 57.7193,66.2634 56.7193,65.2634 55.5,64.5C 55.1667,64.8333 54.8333,65.1667 54.5,65.5C 57.4658,68.5711 56.7991,70.2377 52.5,70.5C 46.4591,69.4885 41.7925,66.4885 38.5,61.5C 38.7325,56.1063 39.3992,50.773 40.5,45.5C 44.6987,46.8659 46.6987,49.8659 46.5,54.5C 47.9778,54.762 49.3112,54.4287 50.5,53.5C 48.2519,50.672 46.2519,47.672 44.5,44.5C 45.3333,44.1667 46.1667,43.8333 47,43.5C 48.9386,43.9543 50.772,44.621 52.5,45.5 Z"/></g>
<g><path style="opacity:0.016" fill="#133b51" d="M 65.5,56.5 C 65.1667,56.5 64.8333,56.5 64.5,56.5C 64.8333,51.1667 65.1667,51.1667 65.5,56.5 Z"/></g>
<g><path style="opacity:0.012" fill="#174a5b" d="M 8.5,55.5 C 8.66212,57.5273 8.49546,59.5273 8,61.5C 7.21086,59.2884 7.37753,57.2884 8.5,55.5 Z"/></g>
<g><path style="opacity:0.008" fill="#154343" d="M 65.5,56.5 C 66.6129,57.9464 66.7796,59.6131 66,61.5C 65.5065,59.8659 65.3398,58.1992 65.5,56.5 Z"/></g>
<g><path style="opacity:0.016" fill="#004545" d="M 64.5,65.5 C 64.3505,64.448 64.5172,63.448 65,62.5C 65.7401,63.7494 65.5735,64.7494 64.5,65.5 Z"/></g>
<g><path style="opacity:0.012" fill="#3f4e4d" d="M 9.5,64.5 C 8.47498,64.1034 8.30831,63.4368 9,62.5C 9.46434,63.0944 9.63101,63.7611 9.5,64.5 Z"/></g>
<g><path style="opacity:0.125" fill="#233a4e" d="M 12.5,61.5 C 12.6282,63.0898 13.2949,64.4231 14.5,65.5C 15.1067,65.3764 15.44,65.0431 15.5,64.5C 16.601,63.2003 17.9343,62.7003 19.5,63C 17.1671,64.2426 16.5004,65.9093 17.5,68C 20.1667,68.6667 22.8333,68.6667 25.5,68C 29.975,65.6862 33.6417,62.5196 36.5,58.5C 37.1667,59.5 37.8333,60.5 38.5,61.5C 41.7925,66.4885 46.4591,69.4885 52.5,70.5C 56.7991,70.2377 57.4658,68.5711 54.5,65.5C 54.8333,65.1667 55.1667,64.8333 55.5,64.5C 56.7193,65.2634 57.7193,66.2634 58.5,67.5C 59.2876,66.2299 60.2876,65.2299 61.5,64.5C 62.1667,63.5 62.8333,62.5 63.5,61.5C 63.5,62.8333 63.5,64.1667 63.5,65.5C 62.6618,65.8417 62.3284,66.5084 62.5,67.5C 61.8333,67.5 61.5,67.8333 61.5,68.5C 60.8333,68.5 60.5,68.8333 60.5,69.5C 59.8333,69.5 59.5,69.8333 59.5,70.5C 58.8333,70.5 58.5,70.8333 58.5,71.5C 49.4839,73.9415 42.4839,71.2748 37.5,63.5C 37.1667,62.1667 36.8333,62.1667 36.5,63.5C 35.8333,63.5 35.5,63.8333 35.5,64.5C 34.8333,64.5 34.5,64.8333 34.5,65.5C 33.8333,65.5 33.5,65.8333 33.5,66.5C 32.8333,66.5 32.5,66.8333 32.5,67.5C 31.5084,67.3284 30.8417,67.6618 30.5,68.5C 29.8333,68.5 29.5,68.8333 29.5,69.5C 28.5084,69.3284 27.8417,69.6618 27.5,70.5C 20.355,72.453 14.6883,70.453 10.5,64.5C 10.5,63.5 10.5,62.5 10.5,61.5C 10.3398,59.8008 10.5065,58.1341 11,56.5C 11.1981,58.3817 11.6981,60.0484 12.5,61.5 Z"/></g>
<g><path style="opacity:0.012" fill="#004f4f" d="M 36.5,63.5 C 36.8333,63.5 37.1667,63.5 37.5,63.5C 37.5,64.8333 36.8333,65.5 35.5,65.5C 35.5,65.1667 35.5,64.8333 35.5,64.5C 36.1667,64.5 36.5,64.1667 36.5,63.5 Z"/></g>
<g><path style="opacity:0.008" fill="#007171" d="M 9.5,64.5 C 9.83333,64.5 10.1667,64.5 10.5,64.5C 10.1667,67.1667 9.83333,67.1667 9.5,64.5 Z"/></g>
<g><path style="opacity:0.02" fill="#003332" d="M 34.5,65.5 C 34.8333,65.5 35.1667,65.5 35.5,65.5C 35.3147,66.1701 34.9813,66.1701 34.5,65.5 Z"/></g>
<g><path style="opacity:0.02" fill="#003332" d="M 33.5,66.5 C 33.8333,66.5 34.1667,66.5 34.5,66.5C 34.3147,67.1701 33.9813,67.1701 33.5,66.5 Z"/></g>
<g><path style="opacity:0.008" fill="#171e6a" d="M 63.5,65.5 C 63.8333,65.5 64.1667,65.5 64.5,65.5C 64.6716,66.4916 64.3382,67.1583 63.5,67.5C 63.5,66.8333 63.5,66.1667 63.5,65.5 Z"/></g>
<g><path style="opacity:0.016" fill="#00403f" d="M 32.5,67.5 C 32.8333,67.5 33.1667,67.5 33.5,67.5C 33.3147,68.1701 32.9813,68.1701 32.5,67.5 Z"/></g>
<g><path style="opacity:0.02" fill="#003332" d="M 62.5,67.5 C 62.8333,67.5 63.1667,67.5 63.5,67.5C 63.3147,68.1701 62.9813,68.1701 62.5,67.5 Z"/></g>
<g><path style="opacity:0.012" fill="#0e3939" d="M 30.5,69.5 C 30.5,69.1667 30.5,68.8333 30.5,68.5C 31.1667,68.5 31.8333,68.5 32.5,68.5C 32.1583,69.3382 31.4916,69.6716 30.5,69.5 Z"/></g>
<g><path style="opacity:0.016" fill="#000040" d="M 61.5,68.5 C 61.8333,68.5 62.1667,68.5 62.5,68.5C 62.3147,69.1701 61.9813,69.1701 61.5,68.5 Z"/></g>
<g><path style="opacity:0.02" fill="#003332" d="M 29.5,69.5 C 29.8333,69.5 30.1667,69.5 30.5,69.5C 30.3147,70.1701 29.9813,70.1701 29.5,69.5 Z"/></g>
<g><path style="opacity:0.012" fill="#000055" d="M 60.5,69.5 C 60.8333,69.5 61.1667,69.5 61.5,69.5C 61.3147,70.1701 60.9813,70.1701 60.5,69.5 Z"/></g>
<g><path style="opacity:0.008" fill="#006969" d="M 27.5,71.5 C 27.5,71.1667 27.5,70.8333 27.5,70.5C 28.1667,70.5 28.8333,70.5 29.5,70.5C 29.1583,71.3382 28.4916,71.6716 27.5,71.5 Z"/></g>
<g><path style="opacity:0.02" fill="#003332" d="M 59.5,70.5 C 59.8333,70.5 60.1667,70.5 60.5,70.5C 60.3147,71.1701 59.9813,71.1701 59.5,70.5 Z"/></g>
<g><path style="opacity:0.016" fill="#004f4f" d="M 27.5,71.5 C 26.7494,72.5735 25.7494,72.7401 24.5,72C 25.448,71.5172 26.448,71.3505 27.5,71.5 Z"/></g>
<g><path style="opacity:0.016" fill="#00403f" d="M 58.5,71.5 C 58.8333,71.5 59.1667,71.5 59.5,71.5C 59.3147,72.1701 58.9813,72.1701 58.5,71.5 Z"/></g>
<g><path style="opacity:0.008" fill="#154b4b" d="M 19.5,73.5 C 20.6009,72.4017 21.9343,72.235 23.5,73C 22.2068,73.49 20.8734,73.6567 19.5,73.5 Z"/></g>
</svg>
