<svg width="141" height="90" viewBox="0 0 141 90" fill="none" xmlns="http://www.w3.org/2000/svg">
<g clip-path="url(#clip0)">
<path d="M3.51074 78.5868C3.51074 52.0509 33.5375 17.4429 33.5375 17.4429C33.5375 17.4429 63.5643 52.0509 63.5643 78.5868" fill="url(#paint0_linear)"/>
<path d="M37.2331 74.5974C38.3418 72.9273 39.4505 71.1644 40.3744 69.4016C40.8363 68.4737 41.2983 67.5459 41.6678 66.7109L41.945 65.9686C41.945 65.8758 42.0374 65.783 42.0374 65.5975L42.1298 65.2263C42.2222 64.948 42.3146 64.7624 42.407 64.4841L42.6841 63.7418C42.7765 63.4635 42.8689 63.2779 42.8689 62.9995C42.9613 62.7212 43.0537 62.5356 43.0537 62.2573C43.1461 61.7934 43.3309 61.3294 43.4232 60.8655C43.608 59.9377 43.7928 59.0099 43.9776 57.9893C44.07 57.0614 44.1624 56.1336 44.2548 55.113V54.7419V54.5563V54.4635V54.3707V53.6285V52.8862C44.2548 52.6079 44.2548 52.4223 44.2548 52.144C44.07 50.1955 43.7004 48.3399 43.0537 46.577C42.4993 44.8141 41.7602 43.2368 40.9287 41.6595C40.1896 40.0822 39.2657 38.5977 38.4342 37.1131C36.7712 34.1441 35.0157 31.3606 33.4451 28.3915C32.706 26.907 31.9669 25.4225 31.3201 23.938C30.6734 22.4534 30.0267 20.8761 29.4723 19.3916C28.918 17.8143 28.4561 16.237 28.0865 14.6597C27.7169 13.0824 27.3474 11.4123 27.1626 9.7422C26.7006 6.77315 26.5159 3.43296 26.7006 0C26.1463 3.43296 25.7767 6.86593 25.8691 10.2989C25.8691 11.969 25.9615 13.7319 26.1463 15.4019C26.3311 17.072 26.6083 18.8349 26.8854 20.505C27.255 22.1751 27.6245 23.8452 28.0865 25.5153C28.5484 27.1854 29.1028 28.7627 29.6571 30.34C30.8582 33.4946 32.1517 36.6492 33.4451 39.7111C34.0918 41.2884 34.6462 42.7729 35.2005 44.2574C35.7549 45.7419 36.1244 47.3192 36.4016 48.8038C36.6788 50.2883 36.7712 51.7728 36.6788 53.1646V53.7213L36.5864 54.278L36.494 54.8347V54.9274V55.0202V55.2058L36.4016 55.4841C36.3092 56.2264 36.1244 56.9687 35.8473 57.7109C35.0157 60.68 33.7223 63.5562 31.9669 66.1542C30.3962 68.4737 28.4561 70.6077 26.3311 72.8345C29.5647 74.0407 32.6136 75.5252 35.7549 76.8242C36.3092 75.8964 36.7712 75.2469 37.2331 74.5974Z" fill="#3BB54A"/>
<path d="M29.6572 72.5562C31.6898 70.3294 33.5376 68.1026 34.9234 65.6903C36.5864 62.9996 37.7875 60.1233 38.4342 57.0615C38.619 56.3192 38.7114 55.577 38.8038 54.7419V54.4636V54.278V54.1852V54.0924L38.8962 53.5357V52.979V52.4223C38.8962 51.0306 38.7114 49.5461 38.4342 48.0615C38.0647 46.577 37.6027 45.0925 37.0484 43.608C36.4941 42.1234 35.8473 40.6389 35.1082 39.1544C33.7224 36.1853 32.2441 33.1235 30.9507 29.9689C30.3039 28.3916 29.6572 26.8143 29.1029 25.1442C28.5485 23.5669 28.0866 21.8968 27.6246 20.2267C27.255 18.5566 26.8855 16.8865 26.6083 15.2164C26.3311 13.5463 26.1464 11.7834 26.054 10.1133C25.8692 6.77317 26.054 3.43298 26.4235 0.0928017C26.4235 1.885e-05 26.4235 -0.092764 26.4235 -0.185547C25.8692 3.24742 25.4996 6.68038 25.592 10.1133C25.592 11.7834 25.6844 13.5463 25.8692 15.2164C26.054 16.8865 26.3311 18.6494 26.6083 20.3195C26.9779 21.9896 27.3474 23.6596 27.8094 25.3297C28.2713 26.9998 28.8257 28.5771 29.38 30.1544C30.5811 33.3091 31.8746 36.4637 33.168 39.5255C33.8147 41.1028 34.3691 42.5874 34.9234 44.0719C35.4778 45.5564 35.8473 47.1337 36.1245 48.6182C36.4017 50.1028 36.4941 51.5873 36.4017 52.979V53.5357L36.3093 54.0924L36.2169 54.6491V54.7419V54.8347V55.0203L36.1245 55.2986C36.0321 56.0409 35.8473 56.7831 35.5702 57.5254C34.7386 60.4944 33.4452 63.3707 31.6898 65.9686C30.1191 68.2882 28.179 70.4222 26.054 72.649C29.2876 73.8552 32.3365 75.3397 35.4778 76.6387C35.8473 76.1747 36.1245 75.7108 36.4941 75.2469C34.4615 74.2263 32.0593 73.2985 29.6572 72.5562Z" fill="#8DC640"/>
<path d="M44.2549 53.1646C44.2549 52.8862 44.2549 52.7006 44.2549 52.4223C44.0701 50.4739 43.7006 48.6182 43.0538 46.8553C42.4995 45.0925 41.7604 43.5151 40.9289 41.9378C40.1898 40.3605 39.2659 38.876 38.4343 37.3915C36.7713 34.4224 35.0159 31.6389 33.4453 28.6699C32.7062 27.1854 31.967 25.7008 31.3203 24.2163C30.6736 22.7318 30.0268 21.1545 29.4725 19.67C28.9182 18.0927 28.4562 16.5153 28.0867 14.938C27.7171 13.3607 27.3475 11.6906 27.1628 10.0205C26.7008 6.77315 26.516 3.43296 26.7008 0C26.7008 0.0927828 26.7008 0.0927828 26.7008 0.185566C26.4236 3.52575 26.516 6.86593 26.7932 10.1133C26.978 11.7834 27.2551 13.3607 27.5323 15.0308C27.9019 16.6081 28.2714 18.2782 28.7334 19.7627C29.1953 21.34 29.7497 22.9174 30.3964 24.4019C31.0431 25.8864 31.6899 27.4637 32.429 28.9482C33.8148 31.9173 35.4779 34.7936 37.0485 37.8554C37.88 39.3399 38.6191 40.9172 39.3582 42.4945C40.0974 44.0718 40.7441 45.7419 41.206 47.5048C41.7604 49.2677 42.0376 51.1233 42.1299 53.1646C42.1299 53.4429 42.1299 53.6285 42.1299 53.9068V54.6491V55.3913V55.4841V55.5769V55.7625V56.1336C42.0376 57.0614 41.9452 57.9893 41.7604 58.9171C41.5756 59.8449 41.3908 60.7728 41.1137 61.7006C41.0213 62.1645 40.8365 62.6284 40.7441 63.0923C40.6517 63.3707 40.5593 63.5562 40.4669 63.8346C40.3745 64.1129 40.2821 64.2985 40.1898 64.5769L39.9126 65.3191C39.8202 65.5047 39.7278 65.783 39.6354 65.9686L39.4506 66.3397C39.3582 66.4325 39.3582 66.5253 39.2659 66.7109L38.9887 67.3603C38.5267 68.2882 38.0648 69.1232 37.6028 70.051C36.5865 71.8139 35.4779 73.484 34.2768 75.1541C34.092 75.4324 33.9072 75.618 33.7224 75.8964C34.3692 76.1747 35.1083 76.4531 35.755 76.8242C36.217 76.1747 36.6789 75.5252 37.1409 74.8757C38.2496 73.2057 39.3582 71.4428 40.2821 69.6799C40.7441 68.7521 41.206 67.8242 41.5756 66.9892L41.8528 66.2469C41.8528 66.1542 41.9452 66.0614 41.9452 65.8758L42.0376 65.5047C42.1299 65.2263 42.2223 65.0408 42.3147 64.7624L42.5919 64.0202C42.6843 63.7418 42.7767 63.5562 42.7767 63.2779C42.8691 62.9995 42.9615 62.814 42.9615 62.5356C43.0539 62.0717 43.2386 61.6078 43.331 61.1439C43.5158 60.2161 43.7006 59.2882 43.8854 58.2676C43.9778 57.3398 44.0701 56.412 44.1625 55.3913V55.0202V54.8347V54.7419V54.6491V53.9068L44.2549 53.1646Z" fill="#009247"/>
<path d="M35.2006 42.3089C35.5702 42.6801 35.7549 42.9584 35.8473 42.9584C35.9397 43.0512 36.0321 43.0512 36.1245 42.9584C36.2169 42.8656 36.2169 42.7728 36.1245 42.6801C36.1245 42.6801 35.8473 42.3089 35.293 41.845C36.6788 39.711 35.2006 37.4842 32.7061 37.1131C30.2115 36.742 27.9942 39.0615 24.9453 39.9894C27.717 39.1543 28.179 43.7007 30.5811 44.8141C32.7985 45.8347 35.2006 44.7213 35.2006 42.3089Z" fill="#8DC640"/>
<path d="M27.5323 20.2269C27.7171 20.2269 27.8095 20.2269 27.8095 20.2269C27.8095 20.2269 27.9019 20.2269 27.9019 20.1341C27.9019 20.1341 27.9019 20.0413 27.8095 20.0413C27.8095 20.0413 27.6247 20.0413 27.3476 20.0413C27.0704 19.1135 26.1465 18.9279 25.4074 19.5774C24.6682 20.2269 24.7606 21.433 24.2063 22.4536C24.6682 21.433 26.0541 22.5464 26.978 22.1753C27.8095 21.8042 28.1791 20.8763 27.5323 20.2269Z" fill="#009247"/>
<path d="M34.2767 66.6183C35.0158 67.2678 35.4778 67.7317 35.4778 67.7317C35.5702 67.9173 35.8473 67.9173 36.0321 67.7317C36.2169 67.639 36.2169 67.3606 36.0321 67.175C35.9397 67.0823 35.3854 66.4328 34.3691 65.6905C36.8636 61.4225 33.8148 57.3401 29.0105 56.8762C24.1138 56.4122 20.0486 61.0514 14.4128 62.9998C19.6791 61.2369 20.9725 69.8657 25.4997 71.7214C29.9344 73.5771 34.4615 71.3503 34.2767 66.6183Z" fill="#8DC640"/>
<path d="M47.581 52.4222C45.918 51.4016 43.9778 51.9583 43.7006 53.9067C43.2387 53.9067 42.8691 53.9995 42.7767 53.9995C42.6843 53.9995 42.6843 54.0923 42.6843 54.185C42.6843 54.2778 42.7767 54.2778 42.8691 54.2778C42.8691 54.2778 43.1463 54.185 43.5158 54.185C42.3148 55.6696 43.1463 57.5252 44.9941 57.9891C46.9343 58.5458 49.4288 56.0407 50.7223 57.9891C49.3364 56.0407 49.244 53.5356 47.581 52.4222Z" fill="#009247"/>
<path d="M30.0268 14.6598C29.1952 14.1031 28.2713 14.3815 28.0866 15.4021C27.8094 15.4021 27.6246 15.4021 27.6246 15.4021L27.5322 15.4949L27.6246 15.5876C27.6246 15.5876 27.717 15.5876 27.9942 15.5876C27.3474 16.3299 27.8094 17.2577 28.7333 17.4433C29.6572 17.7216 30.9507 16.5155 31.505 17.4433C30.9507 16.4227 30.8583 15.2165 30.0268 14.6598Z" fill="#3BB54A"/>
<path d="M39.543 34.979C38.4343 34.979 37.6028 35.814 38.0647 36.9274C37.7876 37.113 37.6952 37.2058 37.6028 37.2058V37.2986H37.6952C37.6952 37.2986 37.7876 37.2058 37.9723 37.113C37.7876 38.2264 38.8039 38.8759 39.9125 38.5975C41.0212 38.3192 41.5755 36.278 42.7766 36.8347C41.4832 36.1852 40.744 34.979 39.543 34.979Z" fill="#006937"/>
<path d="M31.5051 21.8042C30.6736 21.8042 30.1193 22.3609 30.4888 23.1959C30.3041 23.2887 30.2117 23.3815 30.2117 23.3815V23.4743H30.3041C30.3041 23.4743 30.3964 23.3815 30.4888 23.2887C30.3964 24.1238 31.0432 24.4949 31.8747 24.3093C32.7062 24.1238 33.0758 22.6392 33.9073 23.1032C32.891 22.6392 32.3366 21.8042 31.5051 21.8042Z" fill="#3BB54A"/>
<path d="M28.641 50.3811C28.9182 50.6594 29.0106 50.9378 29.0106 50.9378C29.0106 51.0305 29.103 51.0305 29.1954 51.0305C29.2878 51.0305 29.2878 50.9378 29.2878 50.845C29.2878 50.845 29.103 50.5666 28.8258 50.1955C30.1193 48.8038 29.2878 47.0409 27.5323 46.4842C25.7769 45.9275 23.8367 47.3192 21.6194 47.5976C23.7444 47.3192 23.4672 50.6594 25.0378 51.7728C26.5161 52.6078 28.3639 52.1439 28.641 50.3811Z" fill="#3BB54A"/>
<path d="M35.6625 33.9585C35.5701 34.144 35.4777 34.3296 35.4777 34.3296V34.4224H35.5701C35.5701 34.4224 35.6625 34.2368 35.8473 33.9585C36.956 34.3296 37.6951 33.4018 37.5103 32.2884C37.3255 31.175 36.1245 30.5255 35.3854 29.3193C36.0321 30.4327 34.1843 31.175 33.9995 32.2884C33.9071 33.309 34.6462 34.2368 35.6625 33.9585Z" fill="#009247"/>
<path d="M29.3801 64.0202C27.3475 65.6903 27.3475 68.5666 29.7496 69.68C29.5648 70.3295 29.5648 70.7934 29.5648 70.8862C29.5648 70.9789 29.6572 71.0717 29.7496 71.0717C29.842 71.0717 29.9344 70.9789 29.9344 70.8862C29.9344 70.8862 29.9344 70.515 30.1192 69.9583C31.5974 72.1851 34.2767 71.7212 35.6626 69.4944C37.1408 67.2676 34.9235 62.9068 37.8799 62.0718C34.7387 63.0924 31.4126 62.2573 29.3801 64.0202Z" fill="#006937"/>
<path d="M30.4887 59.0098C30.9506 57.7108 31.5049 56.3191 31.9669 55.0201C33.0756 52.3294 34.2766 49.5459 35.2929 46.7625C35.8473 45.3707 36.3092 43.8862 36.6788 42.4945C37.1407 41.0099 37.5103 39.6182 37.7875 38.1337C38.0646 36.6491 38.3418 35.1646 38.4342 33.6801C38.619 32.1956 38.7114 30.711 38.7114 29.1337C38.7114 26.0719 38.4342 23.1028 37.9722 20.1338C38.0646 23.1028 37.9722 26.0719 37.5103 29.0409C37.3255 30.5255 37.0484 31.9172 36.6788 33.309C36.3092 34.7007 35.9397 36.0924 35.4777 37.4842C35.0158 38.8759 34.4614 40.1749 33.9071 41.4738C33.3527 42.7728 32.706 44.0718 31.9669 45.3707C30.581 47.9686 29.1028 50.4738 27.6246 52.9789C26.8854 54.2779 26.1463 55.5768 25.4996 56.9686C24.8529 58.3603 24.2061 59.7521 23.6518 61.3294C23.0974 62.9067 22.7279 64.484 22.6355 66.2469C22.6355 66.4324 22.6355 66.7108 22.6355 66.8963V67.5458V68.1953V68.2881V68.3809V68.5664V68.8448C22.6355 69.6798 22.7279 70.5149 22.9127 71.3499C22.9127 71.4427 22.9127 71.4427 22.9127 71.5355C25.9615 72.3705 28.5485 75.0612 31.5973 75.0612C30.9506 73.6695 30.3963 72.2777 29.9343 70.7932C29.7495 70.1437 29.5648 69.4943 29.4724 68.8448L29.38 68.5664V68.4736V68.3809V68.2881L29.2876 67.8242L29.1952 67.3603V66.8963C29.1028 65.6902 29.1952 64.3912 29.4724 63.0922C29.6571 61.7005 30.0267 60.4015 30.4887 59.0098Z" fill="#009247"/>
<path d="M25.0377 72.0922C25.0377 71.9994 25.0377 71.9994 25.0377 71.9066C24.8529 71.0716 24.7605 70.2365 24.6681 69.4015V69.1231V68.9376V68.8448V68.752V68.1025V67.453C24.6681 67.2675 24.6681 66.9891 24.6681 66.8036C24.7605 65.0407 25.0377 63.3706 25.4996 61.8861C25.9616 60.3088 26.5159 58.8242 27.1626 57.4325C27.8094 56.0407 28.4561 54.649 29.1952 53.35C30.5811 50.6593 31.9669 48.1542 33.2604 45.5563C33.9071 44.2573 34.4615 42.9584 35.0158 41.5666C35.5701 40.2677 36.0321 38.8759 36.4017 37.4842C36.8636 36.0924 37.1408 34.7007 37.4179 33.309C37.6951 31.9172 37.8799 30.4327 38.0647 28.9482C38.3418 26.0719 38.3418 23.1956 38.1571 20.3194C38.1571 20.2266 38.1571 20.1338 38.1571 20.1338C38.2495 23.1028 38.1571 26.0719 37.6951 29.0409C37.5103 30.5255 37.2332 31.9172 36.8636 33.309C36.494 34.7007 36.1245 36.0924 35.6625 37.4842C35.2006 38.8759 34.6462 40.1749 34.0919 41.4738C33.5376 42.7728 32.8908 44.0718 32.1517 45.3707C30.7659 47.9686 29.2876 50.4738 27.8094 52.9789C27.0703 54.2779 26.3311 55.5768 25.6844 56.9686C25.0377 58.3603 24.3909 59.7521 23.8366 61.3294C23.2823 62.9067 22.9127 64.484 22.8203 66.2469C22.8203 66.4324 22.8203 66.7108 22.8203 66.8963V67.5458V68.1953V68.2881V68.3809V68.5664V68.8448C22.8203 69.6798 22.9127 70.5149 23.0975 71.3499C23.0975 71.4427 23.0975 71.4427 23.0975 71.5355C26.1464 72.3705 28.7333 75.0612 31.7822 75.0612C31.7822 74.9684 31.6898 74.9684 31.6898 74.8757C29.2876 74.1334 27.255 72.6489 25.0377 72.0922Z" fill="#3BB54A"/>
<path d="M37.9723 20.1338V20.2266C38.3419 23.1956 38.4343 26.1647 38.2495 29.1337C38.1571 30.6182 37.9723 32.1028 37.7875 33.5873C37.6027 35.0718 37.2332 36.5564 36.8636 38.0409C36.4941 39.5254 36.0321 40.9171 35.5702 42.4017C35.1082 43.7934 34.5539 45.1852 33.9995 46.5769C32.8909 49.3604 31.505 52.0511 30.3039 54.649C29.6572 55.948 29.1029 57.2469 28.6409 58.6387C28.0866 59.9376 27.717 61.2366 27.3474 62.5355C27.0703 63.8345 26.8855 65.1335 26.8855 66.3396V66.8036V67.2675L26.9779 67.7314V67.8242V67.9169V68.0097V68.2881C27.0703 68.9376 27.1627 69.6798 27.3474 70.3293C27.6246 71.7211 28.0866 73.1128 28.7333 74.5045C29.5648 74.8757 30.4887 75.0612 31.4126 75.0612C30.7659 73.6695 30.2115 72.2777 29.7496 70.7932C29.5648 70.1437 29.38 69.4943 29.2876 68.8448L29.1952 68.5664V68.4736V68.3809V68.2881L29.1029 67.8242L29.0105 67.3603V66.8963C28.9181 65.6902 29.0105 64.3912 29.2876 63.0922C29.5648 61.7933 29.9344 60.4943 30.3963 59.1026C30.8583 57.8036 31.4126 56.4119 31.8746 55.1129C32.9832 52.4222 34.1843 49.6387 35.2006 46.8552C35.7549 45.4635 36.2169 43.979 36.5865 42.5872C37.0484 41.1027 37.418 39.711 37.6951 38.2264C37.9723 36.7419 38.2495 35.2574 38.3419 33.7729C38.5266 32.2883 38.619 30.8038 38.619 29.2265C38.7114 26.1647 38.4343 23.1028 37.9723 20.1338Z" fill="#006937"/>
<path d="M40.0984 79.5151H63.1036C65.2285 79.5151 66.8916 77.845 66.8916 75.711C66.8916 73.577 65.2285 71.9069 63.1036 71.9069H61.7177C61.1634 70.144 59.5004 68.9379 57.5602 68.9379C57.4678 68.9379 57.283 68.9379 57.1906 68.9379C56.1743 66.8966 54.1417 65.4121 51.6472 65.4121C49.2451 65.4121 47.1201 66.8039 46.1038 68.9379C46.0114 68.9379 45.8266 68.9379 45.7342 68.9379C43.794 68.9379 42.2234 70.144 41.5767 71.9069H40.1908C38.0659 71.9069 36.4028 73.577 36.4028 75.711C36.3105 77.845 37.9735 79.5151 40.0984 79.5151Z" fill="url(#paint1_linear)"/>
<path d="M40.0973 73.577H41.4832C42.0375 71.8141 43.7005 70.6079 45.6407 70.6079C45.7331 70.6079 45.9179 70.6079 46.0103 70.6079C47.0266 68.5667 49.0592 67.0822 51.5537 67.0822C53.9558 67.0822 56.0808 68.4739 57.0971 70.6079C57.1895 70.6079 57.3743 70.6079 57.4666 70.6079C59.4068 70.6079 60.9775 71.8141 61.6242 73.577H63.01C64.8578 73.577 66.3361 74.876 66.7057 76.546C66.798 76.2677 66.798 75.9893 66.798 75.711C66.798 73.577 65.135 71.9069 63.01 71.9069H61.6242C61.0699 70.144 59.4068 68.9379 57.4666 68.9379C57.3743 68.9379 57.1895 68.9379 57.0971 68.9379C56.0808 66.8966 54.0482 65.4121 51.5537 65.4121C49.1515 65.4121 47.0266 66.8039 46.0103 68.9379C45.9179 68.9379 45.7331 68.9379 45.6407 68.9379C43.7005 68.9379 42.1299 70.144 41.4832 71.9069H40.0973C37.9723 71.9069 36.3093 73.577 36.3093 75.711C36.3093 75.9893 36.3093 76.2677 36.4017 76.546C36.7713 74.876 38.2495 73.577 40.0973 73.577Z" fill="url(#paint2_linear)"/>
<path d="M4.06516 82.4844H28.7333C30.9507 82.4844 32.7985 80.6288 32.7985 78.402C32.7985 76.1752 30.9507 74.3195 28.7333 74.3195H27.2551C26.6083 72.4639 24.8529 71.1649 22.8204 71.1649C22.6356 71.1649 22.5432 71.1649 22.3584 71.1649C21.3421 68.9381 19.0324 67.4536 16.4454 67.4536C13.8585 67.4536 11.5488 69.0309 10.5325 71.1649C10.3477 71.1649 10.2553 71.1649 10.0705 71.1649C8.03794 71.1649 6.28253 72.4639 5.63579 74.3195H4.06516C1.8478 74.3195 0 76.1752 0 78.402C0 80.6288 1.8478 82.4844 4.06516 82.4844Z" fill="url(#paint3_linear)"/>
<path d="M4.06516 76.2675H5.5434C6.19013 74.4118 7.94555 73.1129 9.97813 73.1129C10.1629 73.1129 10.2553 73.1129 10.4401 73.1129C11.4564 70.8861 13.7661 69.4016 16.353 69.4016C18.94 69.4016 21.2497 70.9789 22.266 73.1129C22.4508 73.1129 22.5432 73.1129 22.728 73.1129C24.7605 73.1129 26.5159 74.4118 27.1627 76.2675H28.6409C30.5811 76.2675 32.1517 77.5665 32.6137 79.3293C32.7061 79.051 32.7061 78.6799 32.7061 78.3087C32.7061 76.0819 30.8583 74.2263 28.6409 74.2263H27.1627C26.5159 72.3706 24.7605 71.0717 22.728 71.0717C22.5432 71.0717 22.4508 71.0717 22.266 71.0717C21.2497 68.8449 18.94 67.3604 16.353 67.3604C13.7661 67.3604 11.4564 68.9377 10.4401 71.0717C10.2553 71.0717 10.1629 71.0717 9.97813 71.0717C7.94555 71.0717 6.19013 72.3706 5.5434 74.2263H4.06516C1.8478 74.2263 0 76.0819 0 78.3087C0 78.6799 0.0923901 78.9582 0.0923901 79.3293C0.55434 77.6592 2.12497 76.2675 4.06516 76.2675Z" fill="url(#paint4_linear)"/>
<path d="M55.5265 79.1442C55.5265 76.4535 53.4939 74.2267 50.9069 73.8556C49.3363 71.8144 46.8418 70.5154 44.0701 70.5154C42.9614 70.5154 41.9451 70.701 40.9288 71.0721C39.6354 68.9381 37.3256 67.6392 34.6463 67.6392C32.1518 67.6392 29.9344 68.9381 28.5486 70.8866C28.0866 70.7938 27.6247 70.7938 27.1627 70.7938C24.1138 70.7938 21.5269 72.3711 19.9563 74.7834C17.6465 75.4329 15.8911 77.5669 15.8911 80.1648C15.8911 83.2267 18.3856 85.7318 21.3421 85.7318C22.8204 87.1236 24.8529 87.9586 27.0703 87.9586C27.9018 87.9586 28.6409 87.8658 29.3801 87.5875C30.7659 89.1648 32.7061 90.1854 35.0159 90.1854C37.3256 90.1854 39.3582 89.1648 40.6517 87.4947C41.6679 87.8658 42.7766 88.1442 43.9777 88.1442C46.8418 88.1442 49.4287 86.7524 50.9993 84.6184C53.5863 84.0617 55.5265 81.8349 55.5265 79.1442Z" fill="url(#paint5_linear)"/>
<path d="M20.05 76.8242C21.5283 74.4118 24.2076 72.8345 27.2564 72.8345C27.7184 72.8345 28.1803 72.9273 28.6423 72.9273C29.9358 70.9789 32.2455 69.6799 34.74 69.6799C37.4194 69.6799 39.7291 71.0717 41.0226 73.1129C41.9465 72.7418 43.0551 72.5562 44.1638 72.5562C46.9355 72.5562 49.4301 73.8552 51.0007 75.8964C53.2181 76.1747 55.0658 77.9376 55.5278 80.0716C55.6202 79.7005 55.6202 79.3293 55.6202 78.9582C55.6202 76.2675 53.5876 74.0407 51.0007 73.6696C49.4301 71.6284 46.9355 70.3294 44.1638 70.3294C43.0551 70.3294 42.0389 70.515 41.0226 70.8861C39.7291 68.7521 37.4194 67.4531 34.74 67.4531C32.2455 67.4531 30.0282 68.7521 28.6423 70.7005C28.1803 70.6077 27.7184 70.6077 27.2564 70.6077C24.2076 70.6077 21.6207 72.1851 20.05 74.5974C17.7403 75.2469 15.9849 77.3809 15.9849 79.9788C15.9849 80.3499 15.9849 80.7211 16.0773 81.0922C16.4468 78.9582 18.0174 77.3809 20.05 76.8242Z" fill="url(#paint6_linear)"/>
<path d="M81.5805 58.4533C81.5805 61.4224 80.1023 63.1852 77.6077 63.1852C76.1295 63.1852 74.836 62.8141 73.8198 62.0718L72.8035 66.2471C74.2817 66.9893 75.9447 67.4533 77.8849 67.4533C82.9664 67.4533 86.1076 64.1131 86.1076 58.3605V38.0411H81.4881V58.4533H81.5805ZM101.352 48.9895C100.243 47.5977 98.7651 46.8555 96.8249 46.8555C94.8847 46.8555 93.3141 47.5977 92.0206 48.9895C90.8195 50.3812 90.1728 52.1441 90.1728 54.4637V59.9378C90.1728 62.2574 90.8195 64.0203 92.0206 65.412C93.3141 66.8038 94.8847 67.546 96.8249 67.546C98.6727 67.546 100.243 66.8038 101.352 65.412V67.1749H105.417V47.1338H101.352V48.9895ZM101.167 62.0718C100.151 63.0925 99.0422 63.6492 97.9336 63.6492C95.901 63.6492 94.6075 62.1646 94.6075 59.8451V54.3709C94.6075 52.0513 95.901 50.5668 97.9336 50.5668C99.0422 50.5668 100.151 51.1235 101.167 52.1441V62.0718ZM117.797 63.6492C115.488 63.6492 113.917 61.9791 113.917 59.5667V54.6492C113.917 52.2369 115.488 50.5668 117.705 50.5668C118.906 50.5668 120.015 50.9379 121.216 51.7729L121.77 48.1544C120.384 47.3194 118.814 46.9482 117.151 46.9482C114.933 46.9482 113.178 47.6905 111.7 49.0822C110.314 50.474 109.575 52.2369 109.575 54.5564V60.0306C109.575 62.3502 110.314 64.1131 111.7 65.5048C113.086 66.8966 114.933 67.6388 117.151 67.6388C118.906 67.6388 120.569 67.1749 121.955 66.3399L121.401 62.7213C120.384 63.278 119.091 63.6492 117.797 63.6492ZM134.612 57.0616L140.156 47.2266H135.536L130.732 55.577H129.531V37.3916H125.189V66.9893H129.531V59.1956H130.824L135.721 66.9893H140.525L134.612 57.0616Z" fill="white"/>
</g>
<defs>
<linearGradient id="paint0_linear" x1="33.5334" y1="17.5126" x2="33.5334" y2="78.6225" gradientUnits="userSpaceOnUse">
<stop stop-color="#284173"/>
<stop offset="1"/>
</linearGradient>
<linearGradient id="paint1_linear" x1="51.5663" y1="79.5588" x2="51.5663" y2="65.49" gradientUnits="userSpaceOnUse">
<stop stop-color="#F2F2F3"/>
<stop offset="0.25" stop-color="#6FCCDD"/>
<stop offset="0.75" stop-color="#009BDF"/>
</linearGradient>
<linearGradient id="paint2_linear" x1="36.278" y1="71.0266" x2="66.8521" y2="71.0266" gradientUnits="userSpaceOnUse">
<stop stop-color="#6FBEE7"/>
<stop offset="0.75" stop-color="#009BDF"/>
</linearGradient>
<linearGradient id="paint3_linear" x1="16.3966" y1="82.4925" x2="16.3966" y2="67.4026" gradientUnits="userSpaceOnUse">
<stop stop-color="#F2F2F3"/>
<stop offset="0.25" stop-color="#6FCCDD"/>
<stop offset="0.75" stop-color="#009BDF"/>
</linearGradient>
<linearGradient id="paint4_linear" x1="0" y1="73.4019" x2="32.7933" y2="73.4019" gradientUnits="userSpaceOnUse">
<stop stop-color="#6FBEE7"/>
<stop offset="0.75" stop-color="#009BDF"/>
</linearGradient>
<linearGradient id="paint5_linear" x1="35.7511" y1="90.0141" x2="35.7511" y2="67.5639" gradientUnits="userSpaceOnUse">
<stop stop-color="#F2F2F3"/>
<stop offset="0.25" stop-color="#6FCCDD"/>
<stop offset="0.75" stop-color="#009BDF"/>
</linearGradient>
<linearGradient id="paint6_linear" x1="15.9498" y1="74.309" x2="55.5551" y2="74.309" gradientUnits="userSpaceOnUse">
<stop stop-color="#6FBEE7"/>
<stop offset="0.75" stop-color="#009BDF"/>
</linearGradient>
<clipPath id="clip0">
<rect width="140.525" height="89.9994" fill="white"/>
</clipPath>
</defs>
</svg>
