<svg width="116" height="77" viewBox="0 0 116 77" fill="none" xmlns="http://www.w3.org/2000/svg">
<g clip-path="url(#clip0)">
<path d="M62.4188 69.6899C62.2222 69.7653 62.035 69.8502 61.8385 69.935C61.9976 69.8784 62.1473 69.8219 62.2971 69.7653C62.3345 69.7371 62.3813 69.7182 62.4188 69.6899Z" fill="url(#paint0_linear)"/>
<path d="M105.678 62.1978C104.228 55.8838 97.9661 51.9541 91.7046 53.4054H91.6953C83.3372 59.2576 74.5112 64.4313 65.1891 68.5118C65.2359 68.5966 65.0207 68.8134 64.4216 69.0961C61.8571 69.85 58.9838 71.6783 56.4941 72.2343C57.4862 71.829 57.9074 71.5652 58.1695 71.3484C54.5754 72.6772 51.7395 73.6573 52.2636 73.6478C53.1434 73.8363 49.8208 75.0049 48.3607 75.3253C47.6962 75.4855 46.0208 75.9944 46.1612 75.6834C45.347 76.0603 44.5701 76.3242 43.7933 76.4656C43.5312 76.5033 43.2691 76.5315 43.0071 76.5598H94.6341C94.9336 76.5598 95.2238 76.5315 95.5139 76.4844C95.9913 76.4373 96.4686 76.3619 96.9459 76.2488C103.217 74.8164 107.129 68.5118 105.678 62.1978Z" fill="url(#paint1_linear)"/>
<path d="M106.212 50.408C106.371 50.2196 106.418 49.362 106.418 49.362L106.642 46.0542C108.289 44.5464 109.366 43.4061 109.244 43.2459C109.132 43.114 108.13 43.7642 106.717 44.8668V44.8291L106.876 42.0396C106.876 42.0396 107.765 41.0501 108.757 39.6648C109.759 38.2889 110.901 36.2157 110.966 36.112C111.032 36.0084 111.49 35.5089 112.015 35.0566C112.539 34.6042 113.409 33.6995 113.615 33.4357C113.821 33.1812 114.205 32.4556 114.261 32.3613C114.308 32.2765 114.654 32.0032 114.785 31.8807C114.916 31.7582 115.244 31.4189 115.244 31.4189C115.244 31.4189 114.86 31.6828 114.719 31.7959C114.579 31.909 114.251 32.2011 114.167 32.2388C114.074 32.2765 113.316 32.5215 113.035 32.6912C112.754 32.8514 111.734 33.5676 111.2 34.0105C110.667 34.4534 110.115 34.8398 110.002 34.8775C109.89 34.9246 107.719 35.688 106.221 36.4419C104.723 37.1958 103.619 37.9026 103.619 37.9026L100.952 37.5256L100.914 37.5162C102.224 36.2817 103.039 35.3864 102.926 35.2545C102.805 35.0943 101.513 35.9801 99.7723 37.3654L96.6088 36.9508C96.6088 36.9508 95.7945 36.8282 95.5886 36.9602C95.3827 37.0921 94.428 37.9308 94.428 37.9308C94.428 37.9308 94.2689 38.0816 94.2876 38.1476C94.3063 38.223 95.0177 38.8167 95.0177 38.8167V38.8921L96.5152 40.2114L96.5901 40.1266L98.6211 41.9454L97.3856 42.8312H93.127C93.127 42.8312 92.8369 42.8312 92.7246 42.9443C92.6216 43.0574 92.4719 43.2553 92.4719 43.2553L92.0601 43.9338L94.7837 45.2626L95.4763 44.7631C95.4763 44.7631 95.4576 44.8197 95.5137 44.8951C95.5699 44.9705 95.8507 44.9799 95.9817 44.9045C96.1221 44.8291 96.6743 44.4993 96.6743 44.4993L95.9068 45.2626V45.4417L96.1502 45.8375L96.4684 46.205L96.6275 46.2615L97.7132 45.6396L98.2748 45.2343L97.3575 46.0448L97.4324 46.3181L97.7974 45.9977L97.9566 46.205L98.1157 46.4029L97.7506 46.7233L97.994 46.8458L98.9393 46.0636L98.4526 46.5348L97.657 47.5243L97.6758 47.694L97.9659 48.0898L98.2935 48.4196L98.462 48.4573L99.323 47.8259C99.323 47.8259 98.9112 48.3254 98.8083 48.4573C98.7147 48.5798 98.6679 48.8625 98.7334 48.9379C98.7895 49.0133 98.8551 49.0039 98.8551 49.0039L98.2467 49.6164L98.9674 52.6509L99.6881 52.3588C99.6881 52.3588 99.9033 52.2551 100.025 52.1609C100.147 52.0761 100.203 51.7745 100.203 51.7745L101.026 47.4207L102.093 46.3275L103.413 48.7589L103.32 48.8154L104.274 50.5965L104.34 50.6154C104.34 50.6154 104.77 51.4541 104.836 51.4918C104.901 51.5295 105.07 51.3881 105.07 51.3881C105.07 51.3881 106.043 50.5965 106.212 50.408Z" fill="url(#paint2_linear)"/>
<path d="M92.2942 23.8988C92.4158 23.6255 92.1912 22.7114 92.1912 22.7114L91.3956 19.1115C92.7247 16.8309 93.539 15.1629 93.3611 15.0498C93.202 14.9461 92.3129 16.0676 91.1149 17.8204L91.1055 17.7827L90.4035 14.7576C90.4035 14.7576 91.0587 13.3346 91.7139 11.4593C92.369 9.58393 92.9774 6.90755 93.0148 6.76619C93.0523 6.62484 93.4079 5.90862 93.8291 5.21125C94.2596 4.51389 94.9242 3.18512 95.0739 2.82702C95.2237 2.46891 95.4109 1.53594 95.4389 1.42286C95.467 1.30977 95.7478 0.876274 95.8601 0.69722C95.9724 0.508743 96.2158 0.00927734 96.2158 0.00927734C96.2158 0.00927734 95.8788 0.452199 95.7572 0.631253C95.6355 0.810306 95.3734 1.25323 95.2892 1.32862C95.205 1.40401 94.4468 1.98829 94.1941 2.28043C93.9414 2.57257 93.0429 3.75055 92.603 4.44792C92.1631 5.14529 91.6764 5.77669 91.5641 5.87093C91.4612 5.96516 89.3272 7.68973 87.9326 9.11274C86.538 10.5357 85.5553 11.7514 85.5553 11.7514L82.5322 12.4676L82.4947 12.4771C83.543 10.6206 84.1514 9.33891 83.9829 9.23525C83.7957 9.12216 82.6632 10.5923 81.2031 12.7975L77.6184 13.6833C77.6184 13.6833 76.6918 13.8906 76.5047 14.1168C76.3175 14.343 75.5406 15.6246 75.5406 15.6246C75.5406 15.6246 75.4096 15.8508 75.4564 15.9168C75.5032 15.9827 76.4672 16.322 76.4672 16.322L76.4953 16.3974L78.545 17.1701L78.6012 17.0476L81.3903 18.122L80.314 19.5732L75.6623 21.3543C75.6623 21.3543 75.3441 21.4769 75.2598 21.6371C75.1756 21.7973 75.082 22.0706 75.082 22.0706L74.848 22.9564L78.2362 23.2203L78.8445 22.4004C78.8445 22.4004 78.8352 22.4758 78.9288 22.5229C79.013 22.5795 79.3219 22.4758 79.4435 22.3439C79.5652 22.2119 80.0706 21.6276 80.0706 21.6276L79.4716 22.7491L79.5278 22.9376L79.9209 23.258L80.3795 23.5218L80.5667 23.5124L81.5588 22.391L82.0174 21.7407L81.2686 22.9847L81.4278 23.258L81.7366 22.7679L81.9706 22.9187L82.214 23.0601L81.9051 23.5501L82.214 23.5784L83.0002 22.3627L82.6164 23.0601L82.0548 24.436L82.1297 24.6056L82.5696 24.8977L83.0282 25.105L83.2248 25.0768L83.9735 24.0402C83.9735 24.0402 83.674 24.7469 83.6085 24.9166C83.543 25.0862 83.5804 25.4066 83.674 25.4632C83.7583 25.5197 83.8238 25.482 83.8238 25.482L83.3558 26.3867L85.0967 29.2987L85.7893 28.6955C85.7893 28.6955 85.9952 28.4882 86.0982 28.3469C86.2105 28.2055 86.173 27.8568 86.173 27.8568L85.7051 22.8999L86.5287 21.2978L88.7282 23.3145L88.6439 23.4182L90.2444 24.9071L90.3287 24.8977C90.3287 24.8977 91.0587 25.6139 91.1429 25.6234C91.2272 25.6328 91.3676 25.416 91.3676 25.416C91.3676 25.416 92.1725 24.1721 92.2942 23.8988Z" fill="url(#paint3_linear)"/>
<path d="M76.1115 35.9712C72.8451 40.4852 69.4756 44.9521 65.8254 49.2212C61.0989 54.7341 55.8014 59.9078 49.8488 64.1297C49.8675 64.224 49.6616 64.4973 49.1 64.9496C46.2173 66.2312 43.3439 69.0867 40.4331 69.9348C41.5375 69.36 42.0055 69.0207 42.2956 68.7663C38.5238 70.7547 34.6021 72.3756 30.5963 73.7138C30.2219 73.874 29.9317 73.9965 29.8288 74.0625C29.6884 74.1379 29.9036 74.2038 30.6711 74.0436C32.4682 73.6667 34.4898 72.2908 35.7065 72.1589C36.7361 72.2625 32.8987 73.7703 31.2701 74.4017C30.5401 74.741 28.5746 75.2782 28.7431 74.986C26.8712 75.8719 25.0929 76.1923 23.3707 76.4844C23.0993 76.5221 22.8279 76.5598 22.5658 76.5881H25.7667C25.9165 76.5221 26.085 76.475 26.45 76.3713C27.0584 76.3996 27.4234 76.4938 27.4515 76.5881H28.846C29.3795 76.3619 29.8194 76.098 30.3248 75.8719C30.6992 75.7965 31.0829 75.7305 31.4573 75.6363C32.2903 75.6834 31.7755 75.8907 31.2046 76.0603C30.6337 76.2206 30.0066 76.3713 30.6524 76.4844C33.1701 76.2771 31.5228 75.8153 33.8814 75.5232C34.7893 75.3818 36.1745 75.1368 37.1947 75.0331C38.2149 74.8824 38.8701 74.8541 38.3553 75.3159C38.7484 75.2028 39.1415 75.1274 39.5346 75.0803C40.8075 74.7976 42.071 74.4771 43.3252 74.1379C43.4094 73.9494 43.5872 73.7232 44.5794 73.3934C45.066 73.4405 45.3656 73.4782 45.6557 73.4971C47.0596 73.0824 48.4542 72.6395 49.8394 72.1777L49.8675 72.0929C49.9611 72.0929 50.0734 72.0741 50.1857 72.0552C51.2995 71.6782 52.4039 71.2824 53.499 70.8678C53.2369 70.8961 52.7034 71.0186 53.527 70.6605C53.6394 70.6793 53.6487 70.7547 53.733 70.783C53.9201 70.717 54.1073 70.651 54.2852 70.5757C54.8093 70.2175 54.6408 70.0385 56.6438 69.3129L57.5142 69.228C58.525 68.8228 59.5358 68.3893 60.5467 67.9464C61.5575 67.5035 62.5215 66.9569 63.5136 66.4763C64.4964 65.9768 65.4698 65.4962 66.4432 65.0438C66.9954 64.78 67.5382 64.5067 68.0811 64.2428C68.5678 63.9884 69.0451 63.7339 69.5224 63.4701C70.2431 62.8952 71.881 62.113 72.817 61.4345L72.9106 61.5476C72.9106 61.5476 72.9199 61.5476 72.9199 61.5382C73.285 61.1141 74.0056 60.8125 74.6795 60.5015C80.1548 57.2032 85.4149 53.5373 90.469 49.6075C89.1306 45.2349 85.4055 42.1815 81.0908 41.5595C79.8273 39.3167 78.1145 37.4319 76.1115 35.9712ZM37.7095 74.7316C37.8124 74.6279 38.3178 74.5148 38.0277 74.4771L37.7563 74.4866C38.0277 74.4771 38.4302 74.4206 38.6829 74.3641C38.7109 74.4583 38.2336 74.6656 37.7095 74.7316ZM75.3721 60.0021C76.3455 59.3424 76.6918 58.956 77.8524 58.3246C77.4874 58.8712 76.3455 59.3424 75.3721 60.0021Z" fill="url(#paint4_linear)"/>
<path d="M7.64677 76.3997C7.45958 76.2489 7.30047 76.0981 7.21623 75.9567C7.37535 75.8531 8.29258 75.9379 8.62952 75.9096C9.20045 76.1264 9.57483 76.3054 10.1832 76.4562C10.2581 76.4185 10.333 76.3808 10.4078 76.3431L11.7182 76.0227C12.8975 76.0698 11.793 76.3431 11.0443 76.5787H12.4388C12.963 76.3431 12.7009 76.1169 14.5447 75.8248C16.6413 75.363 20.9092 74.2793 19.7205 75.2217C20.1136 75.1086 20.5067 75.0426 20.8998 74.9767C22.4161 74.5809 23.9136 74.1285 25.4111 73.6667C25.5047 73.45 25.617 73.205 26.8806 72.762C27.4234 72.7809 27.7697 72.7903 28.0879 72.7903C29.6884 72.2343 31.2702 71.6123 32.8332 70.9621L32.8894 70.8302C33.0578 70.8113 33.2638 70.7548 33.4697 70.6982C34.5928 70.2176 35.7066 69.7087 36.811 69.1716C36.5302 69.2564 36.2775 69.3412 36.9982 68.8983C37.1105 68.8888 37.1386 68.9548 37.2135 68.9737C37.4007 68.8794 37.5878 68.804 37.775 68.7098C38.4208 68.1915 38.0933 68.0313 40.4051 66.9475L41.3878 66.7213C41.575 66.6177 41.7622 66.5234 41.9587 66.4198C42.174 66.2973 42.3799 66.1559 42.5952 66.0334L43.0164 65.7507C43.5405 65.3926 44.0646 65.0439 44.5981 64.6858C45.6464 63.9602 46.7227 63.2722 47.7336 62.5089C48.7163 61.6984 49.6897 60.9068 50.6631 60.1341C51.1498 59.7665 51.6271 59.399 52.1138 59.0315C52.6473 58.5603 53.1808 58.0891 53.7049 57.599C54.3414 56.7603 55.9512 55.375 56.8216 54.3384L56.9246 54.4043C56.9527 54.3667 56.9901 54.3384 57.0182 54.3007C57.3271 53.7729 57.9541 53.2358 58.5344 52.7081C59.1615 52.0295 59.7605 51.3322 60.3689 50.6254C59.9945 51.0306 59.564 51.4641 59.1896 51.9259C60.0413 50.861 60.3689 50.3898 61.3797 49.2306C61.3142 49.4757 61.1364 49.7395 60.9118 50.0128C61.726 49.061 62.5216 48.0998 63.2984 47.1197C67.0142 42.4455 70.421 37.5073 73.7624 32.4844C73.7904 31.5609 73.7249 30.6279 73.5097 29.6855C72.1525 23.7768 66.2935 20.092 60.4251 21.4585C57.8605 22.0522 55.7079 23.5223 54.2197 25.4825C52.9468 25.4731 51.6646 25.5862 50.3729 25.8877C44.4297 27.2636 40.0026 31.7682 38.374 37.2718C36.446 37.1021 34.4618 37.2246 32.4682 37.6864C25.9165 39.2131 20.9654 43.9815 18.8688 49.9186C17.0905 49.4285 15.1625 49.3532 13.2344 49.8055C8.60144 50.8798 5.27881 54.6399 4.50198 59.0692C1.14191 61.133 -0.692554 65.1853 0.243398 69.2564C1.10447 73.0259 4.09952 75.7306 7.64677 76.3997ZM19.3274 74.4206L19.0092 74.4395C19.3274 74.4206 19.7861 74.3453 20.0856 74.2793C20.1324 74.3735 19.5802 74.5997 18.9624 74.6845C19.0841 74.5809 19.6737 74.4489 19.3274 74.4206Z" fill="url(#paint5_linear)"/>
</g>
<defs>
<linearGradient id="paint0_linear" x1="62.1272" y1="69.9315" x2="62.1272" y2="69.6902" gradientUnits="userSpaceOnUse">
<stop stop-color="#A71E22"/>
<stop offset="1" stop-color="#ED2024"/>
</linearGradient>
<linearGradient id="paint1_linear" x1="74.4925" y1="76.5755" x2="74.4925" y2="53.1052" gradientUnits="userSpaceOnUse">
<stop stop-color="#A71E22"/>
<stop offset="1" stop-color="#ED2024"/>
</linearGradient>
<linearGradient id="paint2_linear" x1="114.474" y1="42.0343" x2="92.3408" y2="40.3997" gradientUnits="userSpaceOnUse">
<stop offset="0.3128" stop-color="#A91E22"/>
<stop offset="1" stop-color="#ED2024"/>
</linearGradient>
<linearGradient id="paint3_linear" x1="85.5357" y1="-0.000146528" x2="85.5357" y2="29.3173" gradientUnits="userSpaceOnUse">
<stop offset="0.3128" stop-color="#A91E22"/>
<stop offset="1" stop-color="#ED2024"/>
</linearGradient>
<linearGradient id="paint4_linear" x1="22.5675" y1="56.2728" x2="90.4678" y2="56.2728" gradientUnits="userSpaceOnUse">
<stop offset="0.3128" stop-color="#A91E22"/>
<stop offset="1" stop-color="#ED2024"/>
</linearGradient>
<linearGradient id="paint5_linear" x1="36.8886" y1="76.5755" x2="36.8886" y2="21.1686" gradientUnits="userSpaceOnUse">
<stop offset="0.1128" stop-color="#A71E22"/>
<stop offset="1" stop-color="#ED2024"/>
</linearGradient>
<clipPath id="clip0">
<rect width="115.262" height="76.5784" fill="white"/>
</clipPath>
</defs>
</svg>
