<svg width="89" height="81" viewBox="0 0 89 81" fill="none" xmlns="http://www.w3.org/2000/svg">
<g clip-path="url(#clip0)">
<path d="M72.5873 11.228C62.0358 6.94204 50.1815 5.60825 38.8755 6.1062C28.1177 6.58044 16.1868 8.73229 7.26226 15.2116C1.14946 19.6516 -2.58188 26.8838 2.12798 33.8314C8.15236 42.7174 20.7847 46.0075 31.1122 47.5843C29.6857 49.3923 28.2592 51.2063 26.8326 53.0143C25.2647 55.0002 22.9657 57.1046 21.8222 59.3751C20.0243 62.9437 27.204 62.677 31.849 62.2264C31.7724 64.5798 27.5164 69.7313 26.8857 70.7034C25.0112 73.5904 23.1131 76.4595 21.2622 79.3642C21.2857 79.4117 21.3093 79.465 21.3329 79.5124C21.3801 79.5599 21.4272 79.6073 21.4685 79.6606C22.2407 80.4728 25.3472 80.8047 26.2962 80.2534C30.3046 77.9297 33.865 74.2484 37.449 71.3318C40.0014 69.257 42.5538 67.1763 45.1062 65.1015C46.1319 64.2656 47.6468 63.4179 48.4721 62.3628C51.0952 59.0016 43.8094 60.2228 44.3988 58.2606C44.8527 56.743 48.7137 54.9054 49.8691 54.0754C52.3272 52.2971 54.7381 50.4119 57.2669 48.7284C60.5975 46.5054 65.3839 46.4521 69.1978 45.2131C77.0731 42.6463 88.1257 37.3763 88.4204 27.6663C88.1846 19.1833 79.5076 14.0378 72.5873 11.228ZM66.6336 43.5651C63.6568 44.6618 60.5739 45.468 57.4674 46.0845C55.7461 46.4224 54.4434 46.5765 53.0169 47.4598C50.8182 48.8292 48.7609 50.5364 46.6624 52.054C44.5875 53.5538 42.2237 54.935 40.3079 56.6482C37.7909 58.8949 41.6991 59.3336 43.2317 59.9738C44.5226 60.5132 44.5167 60.5725 43.4203 61.6988C42.8839 62.2561 42.1706 62.7184 41.5694 63.2045C39.2881 65.06 37.0069 66.9155 34.7315 68.7709C33.8591 69.4823 32.9926 70.2292 32.1143 70.9939C33.5467 68.8302 34.9968 66.6724 36.3467 64.4613C38.9227 60.2405 31.4777 60.5429 26.6499 61.029C26.7442 59.0135 30.5699 55.2314 31.2065 54.4193C32.9513 52.2022 34.7021 49.9851 36.4469 47.7681C36.7063 47.442 33.9947 46.9382 34.0065 46.9382C24.8579 45.7288 13.9292 42.8123 7.81047 35.2719C3.40713 29.8478 4.39154 23.2203 9.2134 18.466C15.3321 12.4314 24.3981 9.69855 32.6271 8.28769C43.886 6.35517 55.9996 6.82348 66.8105 10.7182C73.9254 13.2791 83.1623 18.389 83.404 27.0557C83.1506 35.8232 73.831 40.9094 66.6336 43.5651Z" fill="url(#paint0_linear)"/>
<path d="M75.4285 12.1408C70.9898 1.55339 54.8089 2.36552 45.7369 4.03721C32.0377 6.56254 17.0062 13.5161 8.50605 25.0045C5.68249 28.8162 3.28335 33.8194 4.38566 38.6863C5.42902 43.2864 9.36667 46.1911 13.5637 47.7383C27.764 52.9846 45.6367 46.9795 57.9448 39.6229C65.9852 34.6138 80.2091 23.5344 75.4285 12.1408ZM55.0211 37.8386C45.0767 43.7844 32.4503 48.2778 20.7257 46.286C16.6702 45.5983 12.2079 43.814 10.1566 39.9727C8.16416 36.244 9.27825 31.8098 11.2058 28.3064C17.0298 17.7486 29.6975 11.1212 40.8149 7.91412C49.0969 5.51921 63.1616 3.2725 69.3629 11.2871C77.0319 21.1987 62.2244 33.357 55.0211 37.8386Z" fill="url(#paint1_linear)"/>
<path d="M81.447 27.7846C77.2382 21.086 71.0723 15.816 64.5587 11.4827C64.376 11.3522 64.1991 11.2396 64.0577 11.1507C52.3862 3.77628 36.4587 -2.40069 22.4883 0.924914C17.8079 2.03938 13.098 4.62398 11.6538 9.56199C10.1978 14.5296 12.5086 19.7818 15.2083 23.8722C23.2782 36.0957 37.4903 44.5549 51.2956 48.4911C60.4501 51.1053 78.4702 54.093 83.8815 43.0848C86.3573 38.046 84.2234 32.2069 81.447 27.7846ZM79.3249 41.0989C73.3182 49.1906 59.7722 47.6434 51.3428 45.6634C38.8166 42.7232 23.8323 35.6511 17.2597 23.9551C15.1081 20.1316 13.8702 15.241 16.0454 11.1448C18.0967 7.27379 22.3822 5.27606 26.479 4.42835C39.8953 1.65406 54.7794 7.21451 65.9852 14.2985C73.3595 19.1475 86.7758 31.0569 79.3249 41.0989Z" fill="url(#paint2_linear)"/>
</g>
<defs>
<linearGradient id="paint0_linear" x1="44.2102" y1="6.00856" x2="44.2102" y2="80.5257" gradientUnits="userSpaceOnUse">
<stop stop-color="#EC2027"/>
<stop offset="1" stop-color="#F15B26"/>
</linearGradient>
<linearGradient id="paint1_linear" x1="54.56" y1="43.4298" x2="25.6015" y2="9.11218" gradientUnits="userSpaceOnUse">
<stop stop-color="#EC2027"/>
<stop offset="1" stop-color="#93288D"/>
</linearGradient>
<linearGradient id="paint2_linear" x1="84.9726" y1="25.467" x2="11.2033" y2="25.467" gradientUnits="userSpaceOnUse">
<stop stop-color="#EC2027"/>
<stop offset="1" stop-color="#93288D"/>
</linearGradient>
<clipPath id="clip0">
<rect width="88.4204" height="80.5257" fill="white"/>
</clipPath>
</defs>
</svg>
