<svg width="62" height="53" viewBox="0 0 62 53" fill="none" xmlns="http://www.w3.org/2000/svg">
<path d="M60.8 22.075L22.8 0.075C22.6 -0.025 22.5 -0.025 22.3 0.075L0.3 12.775C0.1 12.875 0 13.075 0 13.275V29.775C0 29.975 0.1 30.075 0.3 30.175L38.3 52.175C38.4 52.175 38.5 52.275 38.6 52.275C38.7 52.275 38.8 52.275 38.9 52.175L60.9 39.475C61.1 39.375 61.2 39.175 61.2 39.075V22.575C61 22.375 60.9 22.175 60.8 22.075ZM53.9 21.875L53.4 21.975V22.075V22.175L53.9 22.275L53.4 22.375V22.475V22.575C53.4 22.975 53.1 23.475 52.4 23.875C51 24.675 48.9 24.775 47.8 24.075C47.5 23.875 47.2 23.575 47.2 23.175V23.075V22.975H46.7L47.2 22.875V22.775V22.675H46.7L47.2 22.575C47.3 22.575 47.3 22.675 47.4 22.675C48.1 23.075 49 23.275 49.9 23.275C51 23.275 52.1 22.975 53 22.475C53.2 22.375 53.5 22.175 53.6 21.975L53.9 21.875ZM53.4 20.275C53.4 20.675 53 21.075 52.4 21.475C51 22.275 48.9 22.375 47.8 21.675C47.5 21.475 47.2 21.275 47.2 20.875C47.2 20.775 47.2 20.775 47.2 20.675V20.575C47.2 20.475 47.3 20.475 47.3 20.375C47.3 20.375 47.3 20.275 47.4 20.275C47.4 20.175 47.5 20.175 47.6 20.075C47.7 19.975 47.7 19.975 47.8 19.875C47.9 19.775 48.1 19.675 48.2 19.575C48.9 19.175 49.9 18.875 50.9 18.875C51.6 18.875 52.4 18.975 52.9 19.275C53 19.575 53.4 19.775 53.4 20.275ZM44.4 16.375L43.9 16.475V16.575V16.675H44.4L43.9 16.775V16.875V16.975C43.9 17.375 43.6 17.875 42.9 18.275C41.5 19.075 39.4 19.175 38.3 18.475C38 18.275 37.7 17.975 37.7 17.575V17.475H37.2L37.7 17.375V17.275V17.175H37.2L37.7 17.075V16.975C37.7 16.975 37.7 16.975 37.7 16.875L37.8 16.975C38.5 17.375 39.4 17.575 40.3 17.575C41.4 17.575 42.5 17.275 43.4 16.775C43.6 16.675 43.9 16.475 44 16.275L44.4 16.375ZM37.1 16.875H37.4L37.5 16.975L37.1 16.875ZM43.9 14.775C43.9 15.175 43.5 15.675 42.9 15.975C41.5 16.775 39.4 16.875 38.3 16.175C38 15.975 37.7 15.775 37.7 15.375C37.7 15.275 37.7 15.275 37.7 15.175V15.075C37.7 14.975 37.8 14.975 37.8 14.875L37.9 14.775C37.9 14.675 38 14.675 38.1 14.575C38.2 14.475 38.2 14.475 38.3 14.375C38.4 14.275 38.5 14.275 38.6 14.175L38.7 14.075C39.4 13.675 40.4 13.375 41.4 13.375C41.6 13.375 41.8 13.375 41.9 13.375C42.4 13.475 42.9 13.575 43.3 13.775C43.5 14.075 43.9 14.375 43.9 14.775ZM34.9 10.975L34.4 11.075V11.175V11.275H34.9L34.4 11.375V11.475V11.575C34.4 11.975 34.1 12.475 33.4 12.875C32 13.675 29.9 13.775 28.8 13.075C28.5 12.875 28.2 12.575 28.2 12.075H27.7L28.2 11.875V11.775H27.7L28.2 11.575V11.475H27.7L28.2 11.275C28.3 11.275 28.3 11.375 28.4 11.375C29.1 11.775 30 11.975 30.9 11.975C32 11.975 33.1 11.675 34 11.175C34.2 11.075 34.5 10.875 34.6 10.675L34.9 10.975ZM27.6 11.275L27.8 11.175C27.8 11.175 27.9 11.175 27.9 11.275H27.6ZM33.1 8.175C33.2 8.175 33.2 8.175 33.3 8.175C33.5 8.275 33.6 8.275 33.8 8.375C34.1 8.575 34.4 8.875 34.4 9.275C34.4 9.675 34 10.175 33.4 10.475C32 11.275 29.9 11.375 28.8 10.675C28.5 10.475 28.2 10.275 28.2 9.875C28.2 9.775 28.2 9.775 28.2 9.675V9.575C28.2 9.475 28.3 9.475 28.3 9.375C28.3 9.375 28.3 9.275 28.4 9.275C28.5 9.175 28.5 9.175 28.6 9.075L28.7 8.975C28.8 8.875 29 8.775 29.1 8.675C29.3 8.575 29.5 8.475 29.7 8.375C29.8 8.375 29.8 8.375 29.9 8.275C30 8.275 30.2 8.175 30.3 8.175C30.4 8.175 30.5 8.175 30.6 8.075C30.7 8.075 30.8 8.075 31 7.975C31.1 7.975 31.2 7.975 31.3 7.975C31.4 7.975 31.5 7.975 31.7 7.975C31.8 7.975 31.9 7.975 32 7.975C32.1 7.975 32.1 7.975 32.2 7.975C32.3 7.975 32.4 7.975 32.6 7.975C32.7 7.975 32.7 7.975 32.8 7.975C32.9 8.075 33 8.075 33.1 8.175ZM22.5 1.175L23.2 1.575C22.8 1.475 22.5 1.475 22.1 1.475C22.1 1.475 22.1 1.475 22 1.475L22.5 1.175ZM18.6 4.175V4.075C18.6 3.975 18.7 3.975 18.7 3.875C18.7 3.875 18.7 3.775 18.8 3.775C18.9 3.675 18.9 3.675 19 3.575L19.1 3.475C19.2 3.375 19.4 3.275 19.5 3.175C19.7 3.075 19.9 2.975 20.1 2.875C20.2 2.875 20.2 2.875 20.3 2.775C20.4 2.775 20.6 2.675 20.7 2.675C20.8 2.675 20.9 2.675 21 2.575C21.1 2.575 21.3 2.475 21.4 2.475C21.5 2.475 21.6 2.475 21.7 2.475C21.8 2.475 21.9 2.475 22.1 2.475C22.2 2.475 22.3 2.475 22.4 2.475C22.5 2.475 22.5 2.475 22.6 2.475C22.7 2.475 22.8 2.475 23 2.475C23.1 2.475 23.1 2.475 23.2 2.475C23.3 2.475 23.4 2.575 23.6 2.575C23.7 2.575 23.7 2.575 23.8 2.575C24 2.675 24.1 2.675 24.3 2.775C24.6 2.975 24.9 3.275 24.9 3.675C24.9 4.075 24.5 4.575 23.9 4.875C22.5 5.675 20.4 5.775 19.3 5.075C19 4.875 18.7 4.675 18.7 4.275C18.6 4.275 18.6 4.275 18.6 4.175ZM18.4 5.775L18.5 5.875H18.1L18.4 5.775ZM18.6 6.175V6.075C18.6 6.075 18.6 6.075 18.6 5.975L18.7 6.075C19.4 6.475 20.3 6.675 21.2 6.675C22.3 6.675 23.4 6.375 24.3 5.875C24.5 5.775 24.6 5.675 24.8 5.475V5.675V5.775L25.3 5.875L24.8 5.975V6.075C24.8 6.475 24.5 6.975 23.8 7.375C22.4 8.175 20.3 8.275 19.2 7.575C18.9 7.375 18.6 7.075 18.6 6.675V6.575H18.1L18.6 6.475V6.375V6.275H18.1L18.6 6.175ZM7.7 10.475V10.375C7.7 10.275 7.8 10.275 7.8 10.175C7.8 10.175 7.8 10.075 7.9 10.075C7.9 9.975 8 9.975 8.1 9.875L8.2 9.775C8.3 9.675 8.5 9.575 8.6 9.475C8.8 9.375 9 9.275 9.2 9.175C9.3 9.175 9.3 9.175 9.4 9.075C9.5 9.075 9.7 8.975 9.8 8.975C9.9 8.975 10 8.975 10.1 8.875C10.2 8.875 10.4 8.775 10.5 8.775C10.6 8.775 10.7 8.775 10.8 8.775C10.9 8.775 11.1 8.775 11.2 8.775C11.3 8.775 11.4 8.775 11.5 8.775C11.6 8.775 11.7 8.775 11.7 8.775C11.8 8.775 11.9 8.775 12.1 8.775C12.2 8.775 12.2 8.775 12.3 8.775C12.4 8.775 12.5 8.875 12.6 8.875C12.7 8.875 12.7 8.875 12.8 8.875C12.9 8.975 13.1 8.975 13.2 9.075C13.2 9.075 13.2 9.075 13.3 9.075C13.6 9.275 13.9 9.575 13.9 9.975C13.9 10.375 13.5 10.875 12.9 11.175C11.5 11.975 9.4 12.075 8.3 11.375C8 11.375 7.6 11.075 7.6 10.675C7.6 10.675 7.6 10.575 7.7 10.475ZM7.6 12.375H7.1L7.6 12.275C7.7 12.275 7.7 12.375 7.8 12.375C8.5 12.775 9.4 12.975 10.3 12.975C11.4 12.975 12.5 12.675 13.4 12.175C13.6 12.075 13.9 11.875 14 11.675H14.4L13.9 11.775V11.875V11.975H14.4L13.9 12.075V12.175V12.275C13.9 12.675 13.6 13.175 12.9 13.575C11.5 14.375 9.4 14.475 8.3 13.775C8 13.775 7.6 13.575 7.6 13.075V12.975V12.875H7.1L7.6 12.775V12.675C7.6 12.575 7.6 12.475 7.6 12.375ZM38 50.775L1 29.475V14.075L38 35.475V50.775ZM38.5 34.675L1.5 13.275L6.7 10.275V10.375C6.7 10.475 6.6 10.575 6.6 10.675C6.6 10.675 6.6 10.675 6.6 10.775C6.6 10.875 6.6 10.875 6.6 10.975V11.075H6.7C6.7 11.175 6.7 11.175 6.7 11.275H6.6V12.975V13.175C6.6 13.875 7 14.475 7.7 14.875C8.4 15.275 9.3 15.475 10.2 15.475C11.3 15.475 12.4 15.175 13.3 14.675C14.3 14.075 14.9 13.275 14.8 12.475V12.175L14.4 12.075L14.9 11.975V11.875V11.275L14.5 11.175L14.9 11.075V10.975H14.6C14.6 10.975 14.6 10.875 14.7 10.875H14.9V10.175C14.9 9.875 14.8 9.575 14.6 9.275C14.5 9.175 14.4 8.975 14.3 8.875C14.2 8.775 14 8.675 13.8 8.475C13 7.975 12 7.775 10.9 7.775L17.6 3.875C17.6 3.975 17.6 3.975 17.6 4.075C17.6 4.175 17.6 4.275 17.6 4.375V6.375L18.1 6.475L17.6 6.575C17.6 6.575 17.6 6.675 17.6 6.775C17.6 7.475 18 8.075 18.7 8.475C19.4 8.875 20.3 9.075 21.2 9.075C22.3 9.075 23.4 8.775 24.3 8.275C25.3 7.675 25.9 6.875 25.8 5.975C25.8 5.975 25.8 5.875 25.8 5.775C25.8 5.775 25.8 5.675 25.8 5.575C25.8 5.575 25.8 5.475 25.8 5.375C25.8 5.375 25.8 5.275 25.8 5.175C25.8 5.175 25.8 5.075 25.8 4.975C25.8 4.975 25.8 4.875 25.8 4.775C25.8 4.775 25.8 4.675 25.8 4.575C25.8 4.575 25.8 4.475 25.8 4.375C25.8 4.375 25.8 4.275 25.8 4.175C25.8 4.175 25.8 4.075 25.8 3.975C25.8 3.975 25.8 3.875 25.8 3.775V3.675V3.575C25.8 3.375 25.8 3.275 25.7 3.075C25.7 2.975 25.6 2.875 25.6 2.775L32.6 6.775C32.2 6.675 31.9 6.675 31.5 6.675C30.5 6.675 29.5 6.975 28.6 7.475C28.4 7.875 28.1 8.075 28 8.175C27.9 8.275 27.8 8.375 27.8 8.475C27.7 8.575 27.6 8.675 27.6 8.675C27.5 8.775 27.5 8.875 27.4 8.975C27.4 9.075 27.3 9.075 27.3 9.175C27.3 9.275 27.3 9.375 27.2 9.475C27.2 9.575 27.2 9.675 27.2 9.775V10.075H27.3C27.3 10.175 27.3 10.175 27.3 10.275H27.2V10.375H27.4C27.4 10.375 27.4 10.475 27.5 10.475H27.3V12.075C27.3 12.775 27.7 13.375 28.4 13.775C29.1 14.175 30 14.375 30.9 14.375C32 14.375 33.1 14.075 34 13.575C35 12.975 35.5 12.175 35.5 11.375V10.075V9.075C35.5 8.775 35.4 8.575 35.3 8.275L42.3 12.275C41 12.075 39.4 12.375 38.3 12.975C38.2 12.975 38.2 13.075 38.1 13.075C37.9 13.175 37.8 13.275 37.7 13.375C37.6 13.475 37.5 13.575 37.4 13.675C37.3 13.775 37.3 13.775 37.2 13.875C37.1 13.975 37.1 14.075 37 14.175C37 14.275 36.9 14.275 36.9 14.375C36.9 14.475 36.9 14.575 36.8 14.675C36.8 14.775 36.8 14.875 36.8 14.975V17.275C36.8 17.975 37.2 18.575 37.9 18.975C38.6 19.375 39.5 19.575 40.4 19.575C41.5 19.575 42.6 19.275 43.5 18.775C44.5 18.175 45 17.375 45 16.575V16.375V16.275V15.675L44.5 15.575L45 15.475V15.375V14.775H44.9V14.675H45V14.575H44.9C44.9 14.475 44.9 14.475 44.9 14.375V14.175C44.9 13.875 44.8 13.675 44.7 13.375L51.7 17.375C50.4 17.175 48.8 17.475 47.7 18.075C47.6 18.075 47.6 18.175 47.5 18.175C47.3 18.275 47.2 18.375 47 18.575C46.9 18.675 46.8 18.775 46.8 18.875C46.7 18.975 46.6 19.075 46.6 19.175C46.5 19.275 46.5 19.375 46.5 19.475C46.4 19.575 46.4 19.675 46.3 19.775C46.3 19.875 46.3 19.975 46.3 19.975C46.3 20.075 46.2 20.175 46.2 20.275C46.2 20.275 46.2 20.275 46.2 20.375V20.975V21.775L46.7 21.875L46.2 21.975V22.075L46.7 22.175L46.2 22.275V22.775C46.2 23.475 46.6 24.075 47.3 24.475C48 24.875 48.9 25.075 49.8 25.075C50.9 25.075 52 24.775 52.9 24.275C53.9 23.675 54.5 22.875 54.4 22.075V19.775C54.4 19.575 54.4 19.475 54.3 19.275C54.3 19.175 54.2 19.075 54.2 18.975L59.5 22.075L38.5 34.675ZM46.7 22.175H46.6H46.7ZM60 38.675L39 50.775V35.475L60 23.375V38.675ZM43.1 25.675C43.1 25.675 43.1 25.575 43.1 25.675C43 25.575 42.9 25.375 42.8 25.275C42.7 25.175 42.5 25.075 42.3 24.875C41.1 24.175 39.3 24.175 37.8 24.575C37.4 24.675 37 24.875 36.7 25.075C36.6 25.075 36.6 25.175 36.5 25.175C36.3 25.275 36.2 25.375 36 25.475C35.9 25.575 35.8 25.675 35.8 25.775C35.7 25.875 35.6 25.975 35.6 26.075C35.5 26.175 35.5 26.275 35.5 26.375C35.4 26.475 35.4 26.575 35.3 26.675C35.3 26.775 35.3 26.875 35.3 26.875C35.3 26.975 35.2 27.075 35.2 27.175C35.2 27.175 35.2 27.175 35.2 27.275V28.675V28.875V28.975V29.575C35.2 30.275 35.6 30.875 36.3 31.275C37 31.675 37.9 31.875 38.8 31.875C39.9 31.875 41 31.575 41.9 31.075C42.9 30.475 43.5 29.675 43.4 28.875V27.175H43.3V27.075H43.4V26.975V26.575C43.4 26.275 43.3 25.875 43.1 25.675ZM36.2 26.975V26.875C36.2 26.775 36.3 26.775 36.3 26.675C36.3 26.675 36.3 26.575 36.4 26.575C36.4 26.475 36.5 26.475 36.6 26.375L36.7 26.275C36.8 26.175 37 26.075 37.1 25.975C37.8 25.575 38.8 25.275 39.8 25.275C40 25.275 40.2 25.275 40.3 25.275C40.8 25.375 41.3 25.475 41.7 25.675C42 25.875 42.3 26.175 42.3 26.575C42.3 26.975 41.9 27.475 41.3 27.775C39.9 28.575 37.8 28.675 36.7 27.975C36.4 27.775 36.1 27.575 36.1 27.175C36.1 27.075 36.2 27.075 36.2 26.975ZM42.4 28.575H42.9L42.4 28.675V28.775V28.875C42.4 29.275 42.1 29.775 41.4 30.175C40 30.975 37.9 31.075 36.8 30.375C36.5 30.175 36.2 29.875 36.2 29.475V29.375V29.275H35.7L36.2 29.175V29.075V28.975H35.7L36.2 28.875C36.3 28.875 36.3 28.975 36.4 28.975C37.1 29.375 38 29.575 38.9 29.575C40 29.575 41.1 29.275 42 28.775C42.2 28.675 42.5 28.475 42.6 28.275H43L42.5 28.375V28.475C42.4 28.475 42.4 28.575 42.4 28.575ZM42.8 27.875C42.9 27.875 42.9 27.875 42.8 27.875V27.875ZM33.8 20.575C33.8 20.375 33.7 20.275 33.6 20.175C33.5 20.075 33.4 19.975 33.3 19.775C33.3 19.775 33.3 19.775 33.3 19.675C33.2 19.575 33 19.475 32.8 19.275C32 18.975 31 18.775 30 18.775C29 18.775 28 19.075 27.1 19.575C26.9 19.675 26.6 19.875 26.5 20.075C26.4 20.175 26.4 20.275 26.3 20.275C26.2 20.375 26.1 20.475 26 20.575C25.9 20.675 25.9 20.775 25.9 20.875C25.8 20.975 25.8 21.075 25.7 21.175C25.7 21.275 25.7 21.375 25.7 21.375C25.7 21.475 25.6 21.575 25.6 21.675C25.6 21.675 25.6 21.675 25.6 21.775V22.075H25.7C25.7 22.175 25.7 22.175 25.7 22.275H25.6V22.375H25.8C25.8 22.375 25.8 22.475 25.9 22.475H25.7V23.275V23.975C25.7 24.675 26.1 25.275 26.8 25.675C27.5 26.075 28.4 26.275 29.3 26.275C30.4 26.275 31.5 25.975 32.4 25.475C33.4 24.875 33.9 24.075 33.9 23.275L33.4 23.175L33.9 23.075V22.975L33.4 23.075L33.9 22.975V22.075V21.075C33.9 20.875 33.9 20.775 33.8 20.575ZM26.7 21.475V21.375C26.7 21.275 26.8 21.275 26.8 21.175C26.8 21.175 26.8 21.075 26.9 21.075C27 20.975 27 20.975 27.1 20.875L27.2 20.775C27.3 20.675 27.5 20.575 27.6 20.475C27.8 20.375 28 20.275 28.2 20.175C28.3 20.175 28.3 20.175 28.4 20.075C28.5 20.075 28.7 19.975 28.8 19.975C28.9 19.975 29 19.975 29.1 19.875C29.2 19.875 29.4 19.775 29.5 19.775C29.6 19.775 29.7 19.775 29.8 19.775C29.9 19.775 30 19.775 30.2 19.775C30.3 19.775 30.4 19.775 30.5 19.775C30.6 19.775 30.6 19.775 30.7 19.775C30.8 19.775 30.9 19.775 31.1 19.775C31.2 19.775 31.2 19.775 31.3 19.775C31.4 19.775 31.5 19.875 31.7 19.875C31.8 19.875 31.8 19.875 31.9 19.875C32.1 19.975 32.2 19.975 32.4 20.075C32.7 20.275 33 20.575 33 20.975C33 21.375 32.6 21.875 32 22.175C30.6 22.975 28.5 23.075 27.4 22.375C27.1 22.175 26.8 21.975 26.8 21.575C26.6 21.675 26.7 21.575 26.7 21.475ZM32.9 22.875V22.975V23.075H33.4L32.9 23.175V23.275V23.375C32.9 23.775 32.6 24.275 31.9 24.675C30.5 25.475 28.4 25.575 27.3 24.875C27 24.675 26.7 24.375 26.7 23.975V23.875V23.775H26.2L26.7 23.675V23.575V23.475H26.2L26.7 23.375C26.8 23.375 26.8 23.475 26.9 23.475C27.6 23.875 28.5 24.075 29.4 24.075C30.5 24.075 31.6 23.775 32.5 23.275C32.7 23.175 33 22.975 33.1 22.775H33.5L32.9 22.875ZM24.3 15.075C24.3 14.875 24.2 14.775 24.1 14.575C24 14.475 23.9 14.275 23.8 14.175C23.7 14.075 23.5 13.975 23.3 13.775C22.6 13.375 21.6 13.175 20.6 13.175C19.6 13.175 18.6 13.475 17.7 13.975C17.5 14.075 17.2 14.275 17.1 14.475C17 14.575 17 14.675 16.9 14.675C16.8 14.775 16.7 14.875 16.6 14.975C16.5 15.075 16.5 15.175 16.5 15.275C16.4 15.375 16.4 15.475 16.3 15.575C16.3 15.675 16.3 15.775 16.3 15.775C16.3 15.875 16.2 15.975 16.2 16.075C16.2 16.075 16.2 16.075 16.2 16.175V17.275V18.075L16.7 18.175L16.2 18.275C16.2 18.275 16.2 18.375 16.2 18.475C16.2 19.175 16.6 19.775 17.3 20.175C18 20.575 18.9 20.775 19.8 20.775C20.9 20.775 22 20.475 22.9 19.975C23.9 19.375 24.5 18.575 24.4 17.775V16.475V16.375V15.775H24.3C24.3 15.675 24.3 15.675 24.3 15.575C24.3 15.575 24.3 15.475 24.3 15.375C24.4 15.475 24.4 15.275 24.3 15.075ZM17.2 15.975V15.875C17.2 15.775 17.3 15.775 17.3 15.675C17.3 15.675 17.3 15.575 17.4 15.575C17.5 15.475 17.5 15.475 17.6 15.375L17.7 15.275C17.8 15.175 18 15.075 18.1 14.975C18.3 14.875 18.5 14.775 18.7 14.675C18.8 14.675 18.8 14.675 18.9 14.575C19 14.575 19.2 14.475 19.3 14.475C19.4 14.475 19.5 14.475 19.6 14.375C19.7 14.375 19.9 14.275 20 14.275C20.1 14.275 20.2 14.275 20.3 14.275C20.4 14.275 20.5 14.275 20.7 14.275C20.8 14.275 20.9 14.275 21 14.275C21.1 14.275 21.1 14.275 21.2 14.275C21.3 14.275 21.4 14.275 21.6 14.275C21.7 14.275 21.7 14.275 21.8 14.275C21.9 14.275 22 14.375 22.2 14.375C22.3 14.375 22.3 14.375 22.4 14.375C22.6 14.475 22.7 14.475 22.9 14.575C23.2 14.775 23.5 15.075 23.5 15.475C23.5 15.875 23.1 16.375 22.5 16.675C21.1 17.475 19 17.575 17.9 16.875C17.6 16.675 17.3 16.475 17.3 16.075C17.1 16.175 17.1 16.075 17.2 15.975ZM23.4 17.575H23.9L23.4 17.675V17.775V17.875C23.4 18.275 23.1 18.775 22.4 19.175C21 19.975 18.9 20.075 17.8 19.375C17.5 19.175 17.2 18.875 17.2 18.475V18.375V18.275H16.7L17.2 18.175V18.075V17.975H16.7L17.2 17.875C17.3 17.875 17.3 17.975 17.4 17.975C18.1 18.375 19 18.575 19.9 18.575C21 18.575 22.1 18.275 23 17.775C23.2 17.675 23.5 17.475 23.6 17.275H24L23.5 17.375V17.475C23.4 17.475 23.4 17.575 23.4 17.575Z" fill="#CC1D58"/>
</svg>
