<svg width="61" height="56" viewBox="0 0 61 56" fill="none" xmlns="http://www.w3.org/2000/svg">
<path d="M35.5 2.99808C32.8 1.09808 29.4 1.29808 25.8 3.39808C19.2 7.19808 13.5 16.8981 12.4 26.0981C11.2 25.9981 9.8 26.3981 8.5 27.0981C3.8 29.7981 0 36.9981 0 43.1981C0 46.6981 1.2 49.2981 3.3 50.2981L9.8 54.3981C9.8 54.3981 9.9 54.3981 9.9 54.4981L10 54.5981L10.1 54.6981H10.2H10.3C10.4 54.6981 10.4 54.7981 10.5 54.7981C10.6 54.7981 10.7 54.8981 10.8 54.8981C10.9 54.8981 11 54.9981 11 54.9981C11.1 54.9981 11.2 55.0981 11.3 55.0981C11.4 55.0981 11.4 55.0981 11.5 55.0981C11.6 55.0981 11.8 55.1981 11.9 55.1981C12.1 55.1981 12.3 55.1981 12.5 55.1981H12.6C12.8 55.1981 13 55.1981 13.2 55.1981C13.3 55.1981 13.4 55.1981 13.5 55.0981C13.7 55.0981 13.8 54.9981 14 54.9981C14.1 54.9981 14.2 54.8981 14.3 54.8981C14.5 54.7981 14.7 54.7981 14.9 54.6981C15 54.6981 15.1 54.5981 15.2 54.5981C15.3 54.5981 15.3 54.5981 15.4 54.4981L16 54.1981C16 54.1981 16 54.1981 16.1 54.1981L49.6 34.7981C49.6 34.7981 50.3 34.3981 50.5 34.2981C56.2 30.8981 61 21.7981 61 13.9981C61 13.4981 61 12.9981 60.9 12.4981C60.9 12.1981 60.8 11.9981 60.8 11.7981C60.8 11.5981 60.7 11.2981 60.7 11.0981C60.6 10.7981 60.6 10.4981 60.5 10.1981C60.5 9.99808 60.4 9.89808 60.4 9.69808C60.3 9.39808 60.2 9.19808 60.1 8.89808C60.1 8.69808 60 8.59808 60 8.39808C59.9 8.19808 59.8 7.89808 59.7 7.69808C59.6 7.59808 59.6 7.39808 59.5 7.29808C59.3 7.19808 59.2 6.99808 59 6.89808C58.9 6.79808 58.8 6.59808 58.7 6.49808C58.6 6.39808 58.4 6.19808 58.3 6.09808C58.2 5.99808 58 5.79808 57.9 5.69808C57.8 5.59808 57.6 5.49808 57.5 5.39808C57.4 5.29808 57.2 5.19808 57.1 5.09808C57.1 5.09808 57 5.09808 57 4.99808C57 4.99808 57 4.99808 56.9 4.99808L56.3 4.69808L56.2 4.59808L50 0.698077C48 -0.401923 45.4 -0.201923 42.9 1.29808C41.4 2.19808 40 3.39808 38.6 4.99808L35.5 2.99808ZM49.8 33.3981C49.5 33.5981 48.6 34.0981 48.6 34.0981L15.5 53.1981H15.4C15 53.4981 14.5 53.6981 14.1 53.7981C13.9 53.8981 13.8 53.8981 13.6 53.8981H13.5C12.5 54.0981 11.5 53.9981 10.6 53.5981L10.4 53.4981C8.8 52.4981 7.9 50.2981 7.9 47.3981C7.9 41.4981 11.5 34.6981 15.8 32.1981C16.8 31.5981 17.9 31.2981 18.8 31.2981C19.1 31.2981 19.3 31.2981 19.5 31.3981C19.6 31.3981 19.8 31.3981 19.9 31.2981C20 31.1981 20.1 31.0981 20.1 30.8981C21 21.7981 26.6 12.1981 33 8.49808C35.5 7.09808 37.9 6.59808 40 7.19808C41.8 7.69808 43.3 9.09808 44.2 11.0981C44.3 11.2981 44.4 11.3981 44.6 11.3981C44.8 11.3981 44.9 11.2981 45 11.1981C46.6 9.09808 48.3 7.39808 50.1 6.39808C52.4 5.09808 54.6 4.89808 56.3 5.79808C56.7 5.99808 56.9 6.09808 57 6.19808C57.1 6.29808 57.2 6.29808 57.3 6.39808C57.4 6.49808 57.5 6.59808 57.7 6.79808C57.8 6.89808 57.9 6.99808 58 7.09808C58.1 7.19808 58.2 7.39808 58.3 7.49808C58.4 7.59808 58.5 7.79808 58.6 7.99808C58.7 8.09808 58.7 8.29808 58.8 8.39808C58.9 8.59808 59 8.69808 59.1 8.99808C59.2 9.09808 59.2 9.29808 59.2 9.39808C59.3 9.59808 59.4 9.89808 59.4 10.0981C59.4 10.1981 59.5 10.3981 59.5 10.5981C59.6 10.7981 59.6 11.0981 59.7 11.2981C59.7 11.4981 59.8 11.6981 59.8 11.9981C59.8 12.1981 59.9 12.3981 59.9 12.6981C60 12.9981 60 13.4981 60 13.9981C60 21.3981 55.4 30.1981 49.8 33.3981ZM43.4 2.19808C45.7 0.898077 47.9 0.698077 49.6 1.59808L54 4.39808C52.7 4.39808 51.2 4.89808 49.8 5.69808C48.1 6.69808 46.4 8.19808 44.8 10.1981C44 8.89808 43.1 7.89808 42 7.19808L39.4 5.59808C40.7 4.09808 42 2.99808 43.4 2.19808ZM38.2 5.99808L38.4 6.19808C36.6 6.09808 34.6 6.69808 32.6 7.89808C26.2 11.4981 20.5 20.9981 19.3 30.1981L13.3 26.4981C14.3 17.4981 19.8 7.99808 26.2 4.39808C29.5 2.49808 32.5 2.39808 34.9 3.99808L38.2 5.99808ZM3.7 49.4981C2 48.5981 1 46.2981 1 43.1981C1 37.2981 4.6 30.4981 8.9 27.9981C10.2 27.2981 11.5 26.9981 12.6 27.1981L18 30.5981C17.1 30.6981 16.3 30.9981 15.4 31.5981C10.7 34.1981 7 41.3981 7 47.4981C7 49.1981 7.3 50.7981 7.9 51.9981L3.7 49.4981Z" fill="#CC1D58"/>
</svg>
