<svg width="62" height="56" viewBox="0 0 62 56" fill="none" xmlns="http://www.w3.org/2000/svg">
<path d="M60.8 38.9223L50.9 33.2223C50.7 33.1223 50.6 33.1223 50.4 33.2223L42 38.0223C42 37.9223 42 37.7223 42 37.6223V28.5223L49.4 32.8223C49.5 32.8223 49.6 32.9223 49.7 32.9223C49.8 32.9223 49.9 32.9223 50 32.8223L58.6 27.8223C58.8 27.7223 58.9 27.5223 58.9 27.4223V17.6223C58.9 17.4223 58.8 17.3223 58.6 17.2223L48.7 11.5223C48.5 11.4223 48.4 11.4223 48.2 11.5223L42.2 15.0223V7.62227V7.52227V7.42227C42.2 7.32227 42.2 7.22227 42.2 7.12227C42.2 7.02227 42.2 6.92227 42.2 6.82227C42.2 6.72227 42.1 6.62227 42.1 6.42227C42.1 6.32227 42 6.12227 42 6.02227C42 5.92227 41.9 5.82227 41.9 5.72227C41.8 5.62227 41.8 5.42227 41.7 5.32227C41.7 5.22227 41.6 5.12227 41.6 5.12227C41.5 4.92227 41.4 4.82227 41.3 4.62227C41.3 4.52227 41.2 4.52227 41.1 4.42227C41 4.22227 40.8 4.12227 40.7 3.92227C40.6 3.82227 40.6 3.82227 40.5 3.72227C40.3 3.52227 40.2 3.42227 40 3.22227C39.9 3.12227 39.9 3.12227 39.8 3.12227C39.6 2.92227 39.4 2.82227 39.2 2.62227L39.1 2.52227C38.9 2.32227 38.6 2.22227 38.4 2.02227C33.7 -0.477731 26.9 -0.677731 23 1.52227C22.8 1.62227 22.6 1.82227 22.4 1.92227C22.3 1.92227 22.3 2.02227 22.2 2.02227C22.1 2.12227 21.9 2.22227 21.8 2.32227C20.8 3.22227 20.2 4.42227 20.2 5.62227C20.2 5.62227 20.2 5.62227 20.2 5.72227V15.4223L10.8 9.92227C10.6 9.82227 10.5 9.82227 10.3 9.92227L1.7 14.9223C1.5 15.0223 1.4 15.2223 1.4 15.3223V25.1223C1.4 25.3223 1.5 25.4223 1.7 25.5223L11.6 31.2223C11.7 31.2223 11.8 31.3223 11.9 31.3223C12 31.3223 12.1 31.3223 12.2 31.2223L20.3 26.5223V35.5223C20.2 37.5223 21.6 39.5223 24.1 40.9223C26.5 42.3223 29.7 43.0223 32.7 43.0223C35.2 43.0223 37.6 42.5223 39.3 41.5223C40.3 40.9223 41 40.2223 41.5 39.5223V48.3223C41.5 48.5223 41.6 48.6223 41.8 48.7223L51.7 54.4223C51.8 54.4223 51.9 54.5223 52 54.5223C52.1 54.5223 52.2 54.5223 52.3 54.4223L60.9 49.4223C61.1 49.3223 61.2 49.1223 61.2 49.0223V39.2223C61 39.2223 60.9 39.0223 60.8 38.9223ZM49.2 24.9223V31.4223L42.1 27.3223V18.6223L49.2 22.7223V24.9223ZM57.8 27.0223L50.2 31.4223V24.9223V22.7223L57.8 18.3223V27.0223ZM48.4 12.3223L57.3 17.5223L49.7 21.9223L42.1 17.5223V16.0223L48.4 12.3223ZM11.4 30.0223L2.5 24.8223V16.1223L11.4 21.3223V30.0223ZM11.9 20.5223L3 15.3223L10.6 10.9223L19.5 16.1223L11.9 20.5223ZM20 25.6223L12.4 30.0223V21.3223L20 17.0223V25.6223ZM21.2 5.62227C21.2 5.32227 21.3 5.02227 21.4 4.72227C21.7 3.82227 22.4 3.02227 23.5 2.42227C23.6 2.42227 23.6 2.32227 23.7 2.32227C25.3 1.42227 27.4 1.02227 29.7 1.02227C32.5 1.02227 35.5 1.72227 37.8 3.02227C38.3 3.32227 38.7 3.62227 39.1 3.92227C39.2 3.92227 39.2 4.02227 39.3 4.02227C39.4 4.12227 39.6 4.22227 39.7 4.42227C39.8 4.52227 39.8 4.52227 39.9 4.62227C40 4.72227 40.1 4.82227 40.2 4.92227C40.3 5.02227 40.3 5.12227 40.4 5.12227C40.5 5.22227 40.5 5.32227 40.6 5.42227C40.7 5.52227 40.7 5.62227 40.8 5.72227C40.8 5.82227 40.9 5.92227 40.9 5.92227C41 6.02227 41 6.12227 41.1 6.32227C41.1 6.42227 41.1 6.42227 41.2 6.52227C41 6.62227 41 6.82227 41 6.92227C41 7.02227 41 7.02227 41 7.12227C41 7.22227 41 7.32227 41 7.52227C41 8.72227 40.2 9.82227 38.7 10.7223C35.1 12.8223 28.7 12.5223 24.5 10.1223C22.5 8.82227 21.3 7.22227 21.2 5.62227ZM41.1 37.6223C41.1 38.9223 40.3 40.0223 38.8 40.8223C35.2 42.9223 28.8 42.6223 24.6 40.2223C22.4 38.9223 21.2 37.3223 21.3 35.7223V8.52227C22 9.42227 22.9 10.2223 24.1 10.9223C26.5 12.3223 29.7 13.0223 32.7 13.0223C35.2 13.0223 37.6 12.5223 39.3 11.5223C40 11.1223 40.6 10.6223 41.1 10.0223V37.6223ZM51.4 53.3223L42.5 48.1223V39.4223L51.4 44.6223V53.3223ZM51.9 43.7223L43 38.6223L50.6 34.2223L59.5 39.4223L51.9 43.7223ZM60 48.9223L52.4 53.3223V44.6223L60 40.2223V48.9223ZM19.3 39.9223L9.4 34.2223C9.2 34.1223 9.1 34.1223 8.9 34.2223L0.3 39.2223C0.1 39.2223 0 39.4223 0 39.6223V49.4223C0 49.6223 0.1 49.7223 0.3 49.8223L10.2 55.5223C10.3 55.5223 10.4 55.6223 10.5 55.6223C10.6 55.6223 10.7 55.6223 10.8 55.5223L19.4 50.5223C19.6 50.4223 19.7 50.2223 19.7 50.1223V40.3223C19.5 40.2223 19.4 40.0223 19.3 39.9223ZM9.9 54.3223L1 49.1223V40.4223L9.9 45.6223V54.3223ZM10.4 44.7223L1.5 39.5223L9.1 35.1223L18 40.3223L10.4 44.7223ZM18.5 49.9223L10.9 54.3223V45.6223L18.5 41.2223V49.9223Z" fill="#CC1D58"/>
</svg>
