<svg width="62" height="39" viewBox="0 0 62 39" fill="none" xmlns="http://www.w3.org/2000/svg">
<path d="M17 28.5444C15.5 27.6444 14 27.1444 12.6 27.1444C11.2 27.1444 9.8 27.4444 8.4 28.2444L6.7 29.2444C6.5 29.3444 6.4 29.5444 6.4 29.6444C6.4 29.7444 6.5 29.9444 6.7 30.0444L15.4 35.0444C15.5 35.0444 15.6 35.1444 15.7 35.1444C15.8 35.1444 15.9 35.1444 16 35.0444L17.7 34.0444C19.2 33.2444 19.8 32.2444 19.7 31.2444C19.5 30.3444 18.6 29.4444 17 28.5444ZM17.1 33.2444L15.7 34.0444L8 29.5444L8.9 29.0444C10.1 28.3444 11.3 28.0444 12.5 28.0444C13.8 28.0444 15.1 28.5444 16.5 29.3444C18.1 30.2444 18.5 30.9444 18.6 31.4444C18.7 32.1444 17.8 32.7444 17.1 33.2444ZM20.4 26.5444C18.8 25.6444 17.1 25.0444 15.4 24.6444C13.7 24.3444 11.9 24.2444 10.3 24.5444C8.6 24.8444 7 25.3444 5.5 26.2444L0.2 29.2444C0.1 29.3444 0 29.5444 0 29.7444C0 29.9444 0.1 30.0444 0.3 30.1444L15.2 38.7444C15.3 38.7444 15.4 38.8444 15.5 38.8444C15.6 38.8444 15.7 38.8444 15.8 38.7444L21.1 35.7444C22.6 34.8444 23.6 33.9444 24.1 32.8444C24.6 31.7444 24.5 30.6444 23.9 29.5444C23.1 28.5444 22 27.5444 20.4 26.5444ZM23.1 32.4444C22.7 33.2444 21.8 34.1444 20.5 34.8444L15.5 37.7444L1.5 29.7444L6 27.1444C7.4 26.3444 8.9 25.8444 10.4 25.5444C12 25.3444 13.6 25.3444 15.2 25.6444C16.8 25.9444 18.4 26.5444 19.9 27.4444C21.4 28.3444 22.4 29.1444 22.9 30.0444C23.4 30.8444 23.5 31.6444 23.1 32.4444ZM46.5 20.0444L40.2 18.7444C39.3 18.5444 38.5 18.5444 37.7 18.5444C38 17.9444 37.9 17.3444 37.8 16.9444C37.5 16.0444 36.7 15.2444 35.5 14.5444C34 13.6444 32.3 13.2444 30.7 13.2444C29 13.2444 27.4 13.7444 25.7 14.6444L19.5 18.2444C19.3 18.3444 19.2 18.5444 19.2 18.6444C19.2 18.7444 19.3 18.9444 19.5 19.0444L34.4 27.6444C34.5 27.6444 34.6 27.7444 34.7 27.7444C34.8 27.7444 34.9 27.7444 35 27.6444L38.3 25.7444C38.5 25.6444 38.6 25.4444 38.6 25.3444C38.6 25.2444 38.5 25.0444 38.3 24.9444L33.5 22.0444L33.8 21.8444C34.3 21.5444 34.9 21.4444 35.6 21.6444L42.6 23.1444C42.7 23.1444 42.8 23.1444 43 23.0444L46.7 20.9444C46.9 20.8444 47 20.6444 46.9 20.4444C46.8 20.2444 46.7 20.0444 46.5 20.0444ZM42.6 22.1444L35.8 20.7444C34.8 20.5444 34 20.6444 33.3 21.1444L32.3 21.7444C32.1 21.7444 32 21.8444 32 22.0444C32 22.2444 32.1 22.3444 32.3 22.4444L37.1 25.2444L34.8 26.5444L20.9 18.4444L26.3 15.3444C27.8 14.4444 29.3 14.0444 30.8 14.0444C32.3 14.0444 33.7 14.4444 35.1 15.2444C36.1 15.8444 36.7 16.4444 36.9 17.0444C37 17.4444 37.1 17.9444 36.3 18.7444C36.1 18.9444 36.1 19.1444 36.2 19.3444C36.3 19.5444 36.6 19.6444 36.8 19.5444C37.6 19.2444 38.7 19.2444 40 19.5444L45 20.5444L42.6 22.1444ZM32.5 16.4444C31.8 16.0444 31.1 15.8444 30.4 15.8444C29.7 15.8444 29 16.1444 28.2 16.6444L25.8 18.0444C25.6 18.1444 25.5 18.3444 25.5 18.4444C25.5 18.5444 25.6 18.7444 25.8 18.8444L29.3 20.8444C29.4 20.8444 29.5 20.9444 29.6 20.9444C29.7 20.9444 29.8 20.9444 29.9 20.8444L32.3 19.4444C33.2 18.9444 33.7 18.4444 33.7 17.9444C33.6 17.3444 33.3 16.8444 32.5 16.4444ZM32.6 17.7444C32.6 17.7444 32.5 18.0444 31.6 18.5444L29.5 19.7444L27 18.3444L28.6 17.4444C29.3 17.0444 29.9 16.8444 30.4 16.8444C30.9 16.8444 31.4 16.9444 32 17.2444C32.5 17.5444 32.6 17.7444 32.6 17.7444ZM60.8 11.9444L54.3 8.14444L51.5 0.344444C51.5 0.244444 51.3 0.0444444 51.2 0.0444444C51.1 -0.0555556 50.9 0.0444444 50.8 0.0444444L47 2.24444C46.8 2.34444 46.7 2.64444 46.8 2.84444L48.3 7.04444L40.6 6.04444C40.5 6.04444 40.4 6.04444 40.3 6.14444L36.5 8.34444C36.3 8.44444 36.2 8.64444 36.3 8.84444C36.3 9.04444 36.5 9.24444 36.7 9.24444L50.3 10.8444L56.9 14.6444C57 14.6444 57.1 14.7444 57.2 14.7444C57.3 14.7444 57.4 14.7444 57.5 14.6444L60.9 12.6444C61.1 12.5444 61.2 12.3444 61.2 12.2444C61.2 12.1444 60.9 11.9444 60.8 11.9444ZM57.1 13.7444L50.7 10.0444C50.6 10.0444 50.6 9.94444 50.5 9.94444L38.3 8.44444L40.7 7.04444L49 8.14444C49.2 8.14444 49.3 8.14444 49.5 7.94444C49.6 7.84444 49.6 7.64444 49.6 7.44444L47.9 2.94444L50.9 1.24444L53.5 8.64444C53.5 8.74444 53.6 8.84444 53.7 8.94444L59.6 12.3444L57.1 13.7444Z" fill="#CC1D58"/>
</svg>
