<svg width="62" height="47" viewBox="0 0 62 47" fill="none" xmlns="http://www.w3.org/2000/svg">
<path d="M60.8 34.975L53.7 30.875V14.575C53.7 14.475 53.7 14.375 53.6 14.375C53.6 14.375 53.6 14.375 53.6 14.275L53.5 14.175L28.9 0.075C28.7 -0.025 28.6 -0.025 28.4 0.075L7.4 12.175L7.3 12.275C7.3 12.275 7.3 12.275 7.3 12.375C7.3 12.475 7.2 12.475 7.2 12.575V15.875L0.3 19.875C0.1 19.975 0 20.075 0 20.275C0 20.475 0.1 20.575 0.3 20.675L7.2 24.675V31.375C7.2 31.375 7.2 31.375 7.2 31.475V31.575V31.675C7.2 31.675 7.2 31.775 7.3 31.775C7.3 31.775 7.4 31.775 7.4 31.875L31.9 45.975C32 45.975 32 46.075 32.1 46.075C32.2 46.075 32.3 46.075 32.3 45.975L38.1 42.675L43.3 45.675C43.4 45.675 43.5 45.775 43.6 45.775C43.7 45.775 43.8 45.775 43.9 45.675L60.8 35.875C61 35.775 61.1 35.575 61.1 35.475C61.1 35.375 60.9 35.075 60.8 34.975ZM49.4 28.475V27.775C49.4 27.575 49.3 27.475 49.1 27.375L42.5 23.575C42.3 23.475 42.2 23.475 42 23.575L41.4 23.975L39.7 22.975L52.5 15.575V30.375L49.4 28.475ZM42.4 24.475L48 27.675L43.3 30.375L37.7 27.175L42.4 24.475ZM37.2 28.075L42.8 31.275V36.575L37.2 33.375V28.075ZM43.7 31.275L48.4 28.575V33.975L43.7 36.675V31.275ZM28.7 1.075L52.2 14.575L32.2 26.175L8.6 12.575L28.7 1.075ZM8.1 13.475L31.6 26.975V44.575L8.1 31.075V13.475ZM1.5 20.275L7.1 16.975V23.475L1.5 20.275ZM32.6 44.675V39.475L37.1 42.075L32.6 44.675ZM43.6 44.575L32.6 38.275V26.975L38.8 23.375L40.5 24.375L36.4 26.775C36.2 26.875 36.1 27.075 36.1 27.175V33.675C36.1 33.875 36.2 33.975 36.4 34.075L43 37.975C43.1 37.975 43.2 38.075 43.3 38.075C43.4 38.075 43.5 38.075 43.6 37.975L49.3 34.675C49.5 34.575 49.6 34.375 49.6 34.275V29.675L59.7 35.475L43.6 44.575Z" fill="#CC1D58"/>
</svg>
