<svg width="63" height="50" viewBox="0 0 63 50" fill="none" xmlns="http://www.w3.org/2000/svg">
<path d="M62.1 20.1L55.1 16.1C54.9 16 54.8 16 54.6 16.1L48.7 19.5L43 16.2C42.9 16.2 42.9 16.1 42.8 16.1L19.6 15.1V6.20002C19.6 6.00002 19.5 5.90002 19.3 5.80002L9.3 0.100024C9.2 2.44156e-05 9 2.44156e-05 8.8 0.100024L0.3 5.00002C0.1 5.10002 0 5.30002 0 5.50002V15.3C0 15.5 0.1 15.6 0.3 15.7L9.9 21.3L11.5 34.4C11.5 34.6 11.7 34.7 11.8 34.8C11.8 34.8 11.9 34.8 12 34.8L17.9 38.2V44.7C17.9 44.9 18 45 18.2 45.1L25.2 49.1C25.3 49.1 25.4 49.2 25.5 49.2C25.6 49.2 25.7 49.2 25.8 49.1L31.9 45.6C32.1 45.5 32.2 45.3 32.2 45.2V38.3C32.2 38.1 32.1 38 31.9 37.9L24.9 33.8C24.7 33.7 24.6 33.7 24.4 33.8L18.4 37.3L12.7 34L11.1 21.4L15.2 19L33.2 29.4V35.8C33.2 36 33.3 36.1 33.5 36.2L40.5 40.3C40.6 40.3 40.7 40.4 40.8 40.4C40.9 40.4 41 40.4 41.1 40.3L47.2 36.8C47.4 36.7 47.5 36.5 47.5 36.4V29.5C47.5 29.3 47.4 29.2 47.2 29.1L40.2 25.1C40 25 39.9 25 39.7 25.1L33.7 28.6L16 18.4L19.3 16.5C19.4 16.4 19.5 16.3 19.5 16.2L42.6 17.2L48.3 20.5V27C48.3 27.2 48.4 27.3 48.6 27.4L55.6 31.4C55.7 31.4 55.8 31.5 55.9 31.5C56 31.5 56.1 31.5 56.2 31.4L62.3 27.9C62.5 27.8 62.6 27.6 62.6 27.5V20.6C62.4 20.4 62.3 20.2 62.1 20.1ZM18.9 38.6L24.9 42.1V47.9L18.9 44.4V38.6ZM31 44.9L25.9 47.8V42L31 39.1V44.9ZM24.4 34.8L30.4 38.3L25.3 41.2L19.3 37.7L24.4 34.8ZM34.1 29.7L40.1 33.2V39L34.1 35.5V29.7ZM46.2 36.1L41.1 39V33.2L46.2 30.3V36.1ZM39.6 25.9L45.6 29.4L40.5 32.3L34.5 28.8L39.6 25.9ZM9.1 1.10002L18 6.20002L10.4 10.6L1.5 5.50002L9.1 1.10002ZM1 6.30002L9.9 11.5V20.2L1 15V6.30002ZM18.5 15.8L10.9 20.2V11.5L18.5 7.10002V15.8ZM54.8 17.1L60.8 20.6L55.7 23.5L49.7 20L54.8 17.1ZM49.3 20.9L55.3 24.4V30.2L49.3 26.7V20.9ZM61.4 27.2L56.3 30.1V24.3L61.4 21.4V27.2Z" fill="#CC1D58"/>
</svg>
