<svg width="62" height="51" viewBox="0 0 62 51" fill="none" xmlns="http://www.w3.org/2000/svg">
<path d="M18.0058 10.015C18.0058 9.915 18.0058 9.815 18.0058 9.715C18.0058 9.615 18.0058 9.515 17.9058 9.415C17.9058 9.315 17.8058 9.215 17.8058 9.115C17.8058 9.015 17.7058 8.915 17.7058 8.915C17.7058 8.815 17.6058 8.715 17.5058 8.515C17.5058 8.415 17.4058 8.415 17.4058 8.315C17.3058 8.215 17.2058 8.015 17.2058 7.915C17.2058 7.815 17.1058 7.815 17.1058 7.715C17.0058 7.615 16.9058 7.415 16.8058 7.315L16.7058 7.215C16.6058 7.115 16.4058 6.915 16.3058 6.815C16.2058 6.815 16.2058 6.715 16.1058 6.715C16.0058 6.615 15.8058 6.515 15.6058 6.315C15.5058 6.315 15.5058 6.215 15.4058 6.215C15.2058 6.115 15.0058 6.015 14.8058 5.915C14.0058 5.415 12.9058 5.015 11.9058 4.715C9.20579 4.015 6.30579 4.015 3.90579 4.715C3.30579 4.915 2.80579 5.115 2.30579 5.415C2.00579 5.615 1.60579 5.815 1.30579 6.115C1.30579 6.115 1.20579 6.215 1.10579 6.315C1.10579 6.315 1.00579 6.415 0.905792 6.515C0.305792 7.215 0.00579219 8.015 0.00579219 8.815V19.615C-0.0942078 21.315 1.10579 22.915 3.20579 24.115C5.20579 25.315 7.80579 25.915 10.2058 25.915C12.2058 25.915 14.2058 25.515 15.7058 24.615C17.2058 23.715 18.0058 22.515 18.0058 21.215V10.315C18.0058 10.315 18.0058 10.315 18.0058 10.215V10.115C18.0058 10.115 18.0058 10.115 18.0058 10.015ZM1.00579 8.815C1.00579 8.615 1.00579 8.315 1.10579 8.115C1.30579 7.415 1.90579 6.815 2.80579 6.315C3.30579 6.015 3.90579 5.815 4.50579 5.615C5.40579 5.315 6.40579 5.215 7.50579 5.215C7.60579 5.215 7.70579 5.215 7.80579 5.215C8.20579 5.215 8.60579 5.215 8.90579 5.315C10.8058 5.515 12.7058 6.015 14.3058 6.915C14.5058 7.015 14.7058 7.115 14.9058 7.315C15.0058 7.415 15.2058 7.515 15.3058 7.615L15.4058 7.715C15.5058 7.815 15.6058 7.915 15.7058 8.015C15.8058 7.915 15.9058 7.915 16.0058 8.015C16.0058 8.015 16.1058 8.115 16.2058 8.215C16.3058 8.315 16.3058 8.315 16.4058 8.415C16.4058 8.515 16.5058 8.515 16.5058 8.615C16.6058 8.715 16.6058 8.815 16.7058 8.915C16.7058 9.015 16.8058 9.015 16.8058 9.115C16.9058 9.215 16.9058 9.315 16.9058 9.415V9.515C16.9058 9.615 17.0058 9.715 17.0058 9.815C17.0058 9.915 17.0058 9.915 17.0058 10.015C17.0058 10.115 17.0058 10.215 17.0058 10.315C17.0058 11.315 16.3058 12.115 15.2058 12.815C12.3058 14.515 7.10579 14.315 3.70579 12.315C2.00579 11.315 1.00579 10.115 1.00579 8.815ZM17.0058 21.315C17.0058 22.315 16.4058 23.215 15.2058 23.915C12.3058 25.615 7.10579 25.415 3.70579 23.415C1.90579 22.415 0.905792 21.115 1.00579 19.815V11.515C1.50579 12.215 2.30579 12.815 3.20579 13.315C5.20579 14.515 7.80579 15.115 10.2058 15.115C12.2058 15.115 14.2058 14.715 15.7058 13.815C16.2058 13.515 16.7058 13.115 17.0058 12.815V21.315ZM61.0058 6.215C61.0058 6.215 61.0058 6.115 61.0058 6.215C61.0058 6.015 61.0058 6.015 61.0058 5.915C61.0058 5.815 61.0058 5.715 61.0058 5.615C61.0058 5.515 61.0058 5.415 60.9058 5.315C60.9058 5.215 60.9058 5.115 60.8058 5.015C60.8058 4.915 60.7058 4.815 60.7058 4.815C60.7058 4.715 60.6058 4.615 60.5058 4.415C60.5058 4.315 60.4058 4.315 60.4058 4.215C60.3058 4.115 60.2058 3.915 60.2058 3.815C60.2058 3.715 60.1058 3.715 60.1058 3.615C60.0058 3.515 59.9058 3.315 59.8058 3.215L59.7058 3.115C59.6058 3.015 59.4058 2.815 59.3058 2.715C59.2058 2.715 59.2058 2.615 59.1058 2.615C58.9058 2.515 58.8058 2.415 58.6058 2.215C58.5058 2.115 58.4058 2.115 58.4058 2.015C58.1058 2.015 58.0058 1.915 57.8058 1.815C56.3058 0.915 54.5058 0.415 52.6058 0.215C52.2058 0.115 51.8058 0.015 51.4058 0.015C49.1058 -0.085 46.9058 0.315 45.3058 1.215C44.9058 1.415 44.6058 1.715 44.3058 1.915C43.4058 2.715 43.0058 3.715 43.0058 4.715V44.515C42.9058 46.215 44.1058 47.815 46.2058 49.015C48.2058 50.215 50.8058 50.815 53.2058 50.815C55.2058 50.815 57.2058 50.415 58.7058 49.515C60.2058 48.615 61.0058 47.415 61.0058 46.115V6.215C61.0058 6.315 61.0058 6.215 61.0058 6.215ZM44.0058 4.715C44.0058 4.515 44.0058 4.215 44.1058 4.015C44.3058 3.315 44.9058 2.715 45.8058 2.215C47.1058 1.415 48.9058 1.115 50.8058 1.115C51.4058 1.015 52.0058 1.015 52.7058 1.115C54.4058 1.315 56.0058 1.815 57.3058 2.615C57.7058 2.815 58.0058 3.115 58.3058 3.315L58.4058 3.415C58.5058 3.515 58.6058 3.615 58.7058 3.715C58.8058 3.815 58.8058 3.815 58.9058 3.915C59.0058 3.915 59.1058 4.015 59.1058 4.115C59.2058 4.215 59.2058 4.215 59.3058 4.315C59.3058 4.415 59.4058 4.415 59.4058 4.515C59.5058 4.615 59.5058 4.715 59.6058 4.815C59.6058 4.915 59.6058 4.915 59.7058 5.015C59.8058 5.115 59.8058 5.215 59.8058 5.315V5.415C59.8058 5.515 59.9058 5.615 59.9058 5.715C59.9058 5.815 59.9058 5.815 59.9058 5.915C59.9058 6.015 59.9058 6.115 59.9058 6.215C59.9058 7.215 59.2058 8.015 58.1058 8.715C55.2058 10.415 50.0058 10.215 46.6058 8.215C45.0058 7.215 44.0058 6.015 44.0058 4.715ZM60.0058 46.115C60.0058 47.115 59.4058 48.015 58.2058 48.715C55.3058 50.415 50.1058 50.215 46.7058 48.215C44.9058 47.215 43.9058 45.915 44.0058 44.615V7.215C44.5058 7.915 45.3058 8.515 46.2058 9.015C48.2058 10.215 50.8058 10.815 53.2058 10.815C55.2058 10.815 57.2058 10.415 58.7058 9.515C59.2058 9.215 59.7058 8.815 60.0058 8.515V46.115ZM39.5058 13.315C39.5058 13.215 39.5058 13.115 39.5058 13.015C39.5058 12.915 39.5058 12.815 39.4058 12.715C39.4058 12.615 39.4058 12.515 39.3058 12.415C39.3058 12.315 39.2058 12.215 39.2058 12.115C39.2058 12.015 39.1058 11.915 39.0058 11.815C39.0058 11.715 38.9058 11.715 38.9058 11.615C38.8058 11.515 38.8058 11.315 38.7058 11.215C38.7058 11.115 38.6058 11.115 38.6058 11.015C38.5058 10.915 38.4058 10.715 38.3058 10.615C38.3058 10.515 38.2058 10.515 38.1058 10.415C38.0058 10.315 37.9058 10.115 37.7058 10.015C37.6058 9.915 37.5058 9.915 37.5058 9.815C37.4058 9.715 37.2058 9.615 37.1058 9.515C36.9058 9.315 36.6058 9.215 36.4058 9.015C32.6058 7.015 27.0058 6.815 23.8058 8.715C23.6058 8.815 23.4058 8.915 23.3058 9.015C23.2058 9.115 23.2058 9.115 23.1058 9.215C23.0058 9.315 22.9058 9.315 22.9058 9.415C22.0058 10.215 21.6058 11.115 21.6058 12.115V32.015C21.5058 33.715 22.7058 35.315 24.8058 36.515C26.8058 37.715 29.4058 38.315 31.8058 38.315C33.8058 38.315 35.8058 37.915 37.3058 37.015C38.8058 36.115 39.6058 34.915 39.6058 33.615V13.715V13.615V13.515C39.5058 13.515 39.5058 13.415 39.5058 13.315ZM22.5058 12.115C22.5058 11.915 22.5058 11.615 22.6058 11.415C22.8058 10.715 23.4058 10.115 24.3058 9.615C24.4058 9.515 24.6058 9.515 24.7058 9.415C24.9058 9.315 25.1058 9.215 25.4058 9.115C26.5058 8.715 27.9058 8.515 29.3058 8.515C31.6058 8.515 34.0058 9.115 35.8058 10.115C36.0058 10.215 36.2058 10.415 36.4058 10.515C36.5058 10.615 36.6058 10.715 36.7058 10.715C36.8058 10.815 36.9058 10.815 36.9058 10.915C37.0058 11.015 37.1058 11.115 37.2058 11.215C37.3058 11.315 37.3058 11.315 37.4058 11.415C37.5058 11.515 37.5058 11.615 37.6058 11.615C37.7058 11.715 37.7058 11.715 37.8058 11.815C37.9058 11.915 37.9058 11.915 37.9058 12.015C38.0058 12.115 38.0058 12.215 38.1058 12.315C38.1058 12.415 38.2058 12.415 38.2058 12.515C38.3058 12.615 38.3058 12.715 38.3058 12.815V12.915C38.3058 13.015 38.4058 13.115 38.4058 13.215C38.4058 13.315 38.4058 13.315 38.4058 13.415C38.4058 13.515 38.4058 13.615 38.4058 13.715C38.4058 14.715 37.7058 15.515 36.6058 16.215C33.7058 17.915 28.5058 17.715 25.1058 15.715C23.5058 14.615 22.5058 13.415 22.5058 12.115ZM38.5058 33.615C38.5058 34.615 37.9058 35.515 36.7058 36.215C33.8058 37.915 28.6058 37.715 25.2058 35.715C23.4058 34.715 22.4058 33.415 22.5058 32.115V14.715C23.0058 15.415 23.8058 16.015 24.7058 16.515C26.7058 17.715 29.3058 18.315 31.7058 18.315C33.7058 18.315 35.7058 17.915 37.2058 17.015C37.7058 16.715 38.2058 16.315 38.5058 16.015V33.615Z" fill="#CC1D58"/>
</svg>
