<svg width="220" height="92" viewBox="0 0 220 92" fill="none" xmlns="http://www.w3.org/2000/svg">
<g clip-path="url(#clip0)">
<path d="M205.985 61.2527H216.102V56.3632H205.985V53.3264H216.716V48.2844H200.028V69.5495H217.148V64.4784H205.993V61.2527H205.985ZM188.953 64.987C184.735 64.987 183.266 61.8557 183.237 59.0949C183.208 56.3269 184.83 52.9849 188.953 52.9849C190.393 52.9849 191.98 53.3773 193.507 54.8376L197.235 51.1904C194.823 48.851 192.038 47.7903 188.953 47.7903C180.912 47.7903 177.213 53.5952 177.243 59.0586C177.272 64.8344 180.547 70.0872 188.953 70.0872C192.191 70.0872 195.13 69.1427 197.542 66.7742L193.997 62.822C192.469 64.3767 190.393 64.987 188.953 64.987ZM161.716 48.2771L152.118 69.5423H158.537L159.94 66.0477H169.509L170.912 69.5423H177.396L167.827 48.2771H161.716ZM161.994 61.0057L164.743 54.2273L167.462 61.0057H161.994ZM123.01 56.1743C120.898 55.9637 119.465 55.753 119.465 54.2927C119.465 53.1666 120.898 52.7161 122.367 52.7161C124.231 52.7161 125.912 53.0794 127.382 54.1764L130.379 50.3767C128.083 48.5822 125.576 47.8557 122.367 47.8557C117.842 47.8557 113.412 49.8028 113.412 54.2999C113.412 59.589 117.447 60.7732 122.126 61.1946C124.48 61.4053 125.7 62.0737 125.7 63.1417C125.7 64.3259 124.326 65.0233 122.338 65.0233C120.532 65.0233 118.178 64.6601 116.073 62.6258L112.74 66.4255C115.708 69.5205 118.456 70.1961 122.308 70.1598C127.111 70.1308 131.694 68.0602 131.694 63.2288C131.694 58.3321 127.257 56.6321 123.01 56.1743ZM144.962 48.2771H134.567V69.5423H140.62V63.8028H144.962C150.678 63.7447 153.551 60.3664 153.551 56.0218C153.551 51.8588 150.708 48.2771 144.962 48.2771ZM144.962 58.7244H140.62V53.4354H144.962C146.614 53.4354 147.499 54.7141 147.499 56.109C147.499 57.5111 146.643 58.7244 144.962 58.7244ZM202.191 39.1738H211.76L213.164 42.6684H219.648L210.079 21.4032H203.968L194.37 42.6684H200.788L202.191 39.1738ZM206.994 27.3534L209.713 34.1318H204.238L206.994 27.3534ZM157.988 35.7737H160.101L165.086 42.6684H171.753V42.3051L166.19 35.1344C169.794 33.5578 170.715 31.3347 170.715 28.7265C170.715 24.8978 167.871 21.4032 162.403 21.4032H151.95V42.6684H158.003V35.7737H157.988ZM157.988 26.1982H162.389C163.975 26.1982 164.743 27.506 164.743 28.8427C164.743 30.1214 164.041 31.3056 162.447 31.3056H157.981V26.1982H157.988ZM116.468 42.6684H122.491V26.3508H128.756V21.3959H110.232V26.3508H116.468V42.6684ZM180.518 35.7737H182.63L187.615 42.6684H194.282V42.3051L188.719 35.1344C192.323 33.5578 193.244 31.3347 193.244 28.7265C193.244 24.8978 190.401 21.4032 184.933 21.4032H174.48V42.6684H180.532V35.7737H180.518ZM180.518 26.1982H184.918C186.512 26.1982 187.272 27.506 187.272 28.8427C187.272 30.1214 186.57 31.3056 184.977 31.3056H180.51V26.1982H180.518ZM148.507 37.5973H137.352V34.3788H147.469V29.4893H137.352V26.4452H148.083V21.4032H131.395V42.6684H148.515V37.5973H148.507Z" fill="url(#paint0_linear)"/>
<path d="M46.155 91.7447C71.6457 91.7447 92.3099 71.2069 92.3099 45.8723C92.3099 20.5377 71.6457 0 46.155 0C20.6643 0 0 20.5377 0 45.8723C0 71.2069 20.6643 91.7447 46.155 91.7447Z" fill="white"/>
<path d="M82.9167 18.1411C67.5073 -2.04154 38.5527 -5.97926 18.253 9.33574C11.6667 14.3051 6.80558 20.6839 3.76465 27.7312C11.769 33.5506 19.2471 40.2999 26.0161 47.972L36.0892 43.315L37.5585 46.1629L28.6989 51.1178C29.8758 52.5345 31.0307 53.9657 32.1565 55.4406L40.8918 50.7182L42.5366 53.4644L34.5249 58.6227C41.981 68.9393 47.7851 79.9605 52.003 91.3669C59.7588 90.3861 67.3685 87.451 74.0497 82.4089C94.3568 67.0939 98.3261 38.3165 82.9167 18.1411Z" fill="url(#paint1_linear)"/>
<path d="M29.4591 50.6891L4.13745 64.8562C4.8319 66.3747 5.61406 67.8568 6.48394 69.3171L32.9386 55.0192C31.8056 53.5444 30.6433 52.1059 29.4591 50.6891Z" fill="url(#paint2_linear)"/>
<path d="M26.8202 47.6015C19.905 39.7841 12.2734 32.8895 4.10091 26.9538C-0.460494 36.9943 -1.2719 48.4515 1.9591 59.1095L26.8202 47.6015Z" fill="url(#paint3_linear)"/>
<path d="M35.2852 58.136L10.0293 74.4027C20.6653 87.7125 37.31 93.6264 53.1799 91.2071C48.8305 79.6918 42.8802 68.5615 35.2852 58.136Z" fill="url(#paint4_linear)"/>
<path d="M11.6227 64.631C10.9356 63.7374 10.2412 62.8002 9.53211 61.8339L4.13737 64.849C4.83181 66.3674 5.61398 67.8568 6.48386 69.3098L12.288 66.1712C12.1271 65.7426 11.9225 65.2558 11.6227 64.631ZM12.3391 60.2647C13.6476 61.616 14.9195 62.9092 16.1184 64.1079L24.0862 59.7997C22.9824 58.3684 21.8932 56.959 20.804 55.535L12.3391 60.2647ZM4.09351 32.3228C6.30842 34.4152 7.16368 35.7447 10.3289 38.5272C14.8172 42.0799 17.7119 44.9787 20.3874 47.8412C20.9868 48.4733 21.5716 49.1199 22.1564 49.7665L26.8128 47.616C21.016 41.0628 14.7222 35.1562 8.02626 29.918C10.0438 31.6035 12.171 33.369 13.5964 34.5895C14.2032 35.781 17.902 39.0867 21.0964 42.1453C24.2982 45.1967 27.0102 47.9792 25.921 47.7686L24.2982 45.8723C18.1725 39.0867 13.8888 36.8199 7.26602 31.4146C5.83328 29.9834 4.70754 28.8064 3.74994 27.7675C3.55988 28.2034 3.36983 28.6466 3.19439 29.0898C3.47216 29.3804 3.74263 29.671 3.99117 29.9398C3.72801 30.3975 8.8669 35.6938 4.09351 32.3228ZM50.5555 84.7556L50.3508 84.5376C50.4605 84.7047 50.5628 84.8646 50.6725 85.0317C50.6286 84.9372 50.592 84.85 50.5555 84.7556ZM28.9035 57.1988C28.4649 56.5812 28.7499 56.7701 29.1447 57.068L32.9458 55.0119C31.8128 53.5371 30.6505 52.0986 29.4663 50.6891L25.19 53.0794C26.323 54.3508 27.5365 55.6949 28.9035 57.1988ZM31.9444 60.2865C32.6461 61.2818 32.9678 61.8848 33.0701 62.219C33.2382 62.7929 32.7923 62.6622 32.4707 62.6404C32.1491 62.6186 31.9517 62.713 32.6023 63.7301C33.2529 64.7473 34.7587 66.6725 37.7266 70.4504C39.2836 72.4411 40.3654 73.6544 40.6432 73.6907C41.1768 74.4753 41.652 75.2309 40.1973 73.4074C43.8669 78.8417 44.1081 79.1977 44.1301 78.9216C44.1301 78.6601 43.8523 77.781 46.2646 80.9196C44.4371 78.4785 42.5803 76.0664 40.6944 73.6834C40.7309 73.6544 40.7236 73.5454 40.6505 73.3565C39.3567 71.2859 38.2821 69.1354 35.7456 66.1204C35.9868 66.0259 32.0321 61.0348 34.7368 63.6866C37.4049 67.2102 39.4736 69.7167 41.4035 72.0778C43.326 74.4463 45.1023 76.6694 47.0394 79.6845L48.6549 81.4209C48.9546 81.8713 49.3567 82.438 49.8172 83.0919C45.9137 74.4536 41.0745 66.0913 35.2777 58.1287L31.9444 60.2865ZM2.58035 51.6554C1.79088 50.4203 1.00871 49.178 0.25579 47.9502C2.62421 49.8319 4.86836 51.8661 6.13298 53.7914C6.87129 54.576 7.62421 55.3607 8.36983 56.1453L17.9312 51.7208C16.5643 49.8682 15.1754 47.9211 13.728 45.7852C11.959 44.7317 7.06135 38.9268 10.0657 44.0343C7.28064 40.2636 4.57597 36.6528 1.8055 33.1728C1.38152 34.6549 1.03064 36.1515 0.752866 37.6627C2.14176 39.3991 3.39906 41.0846 4.3786 42.5158C5.38006 43.3368 6.34497 44.2013 7.33181 45.0514C9.34205 47.6596 10.2266 49.0908 11.1842 50.6092C9.37129 48.8511 7.59497 47.2527 5.91369 45.9305C3.47947 43.7654 1.68854 42.1962 0.27772 40.9683C-0.372865 47.0057 0.175381 53.1738 1.96632 59.095L6.21339 57.1334C4.98532 55.3461 3.76456 53.5153 2.58035 51.6554ZM49.8464 88.2211C50.5336 89.2672 51.2061 90.328 51.8786 91.3814C52.0979 91.3524 52.3099 91.3306 52.5292 91.3015C50.8771 88.6497 51.9151 91.3887 49.8464 88.2211ZM41.0526 81.3991C38.3406 78.3622 37.2806 77.5994 33.8596 73.4074C31.3815 69.6295 29.1081 66.4546 26.9151 63.5267L20.0511 67.9439C21.6227 69.4188 22.8508 70.4722 23.5599 70.9009C23.3991 71.0534 20.6651 68.8521 23.3552 72.3321C23.9839 72.9279 25.19 74.1993 25.2412 74.1484C25.8333 74.7877 30.6651 81.0213 32.5803 82.8158C33.3625 83.5568 33.6549 83.7384 33.5891 83.4769C32.3318 81.6243 32.1198 80.9123 32.6169 80.9922C34.1593 83.0773 35.6286 85.097 36.8859 86.9061C38.0263 88.0976 39.2836 89.6523 40.5994 91.3959C43.2236 91.7156 45.8771 91.8101 48.5233 91.6793C46.2499 89.8121 44.4517 85.8526 41.0526 81.3991ZM18.8157 76.9964C17.4268 74.8023 15.9649 72.6663 14.8026 71.3295L10.0365 74.3954C13.9108 79.2486 18.5891 83.1209 23.7353 85.9616C23.2382 84.741 23.2675 84.5231 22.595 83.0483C21.6008 81.5662 20.2485 79.2558 18.8157 76.9964Z" fill="url(#paint5_linear)"/>
<path d="M94.6491 16.502L25.921 34.7086L53.0044 66.145L94.6491 16.502Z" fill="url(#paint6_linear)"/>
<path d="M71.6593 26.903L32.8654 42.6539L32.4634 46.192L38.0993 48.6113L71.6593 26.903Z" fill="url(#paint7_linear)"/>
<path d="M65.1754 47.5942L51.1842 60.4826L51.4401 52.6871L65.1754 47.5942Z" fill="url(#paint8_linear)"/>
<path d="M48.5672 30.521L30.9283 37.1904L28.4283 28.712L48.5672 30.521Z" fill="url(#paint9_linear)"/>
<path d="M85.1169 19.0202C81.6593 20.1391 78.9766 21.0472 73.94 24.411C68.9035 27.7748 38.0994 48.6113 38.0994 48.6113L39.576 50.0789L79.5102 28.4795C79.5102 28.4795 88.6842 23.5828 90.4093 21.534C92.1345 19.4852 94.6418 16.4919 94.6418 16.4919L85.1169 19.0202Z" fill="url(#paint10_linear)"/>
<path d="M83.2675 23.9024C83.2968 23.6409 83.8962 22.5438 82.6389 21.643C81.5789 20.8801 80.0804 21.0327 79.6491 21.0908C78.0336 21.8536 76.228 22.878 73.9327 24.411C73.9254 24.4183 73.9181 24.4183 73.9108 24.4255C74.035 24.5926 75.3289 25.6533 75.9795 26.1038C76.6739 26.5833 77.2441 26.8666 78.0263 26.5252C78.8158 26.191 83.2383 24.1712 83.2675 23.9024Z" fill="#010101"/>
<path d="M77.3538 29.7291L38.5526 49.4032L38.6111 53.5298L44.1301 55.9636L77.3538 29.7291Z" fill="url(#paint11_linear)"/>
</g>
<defs>
<linearGradient id="paint0_linear" x1="164.941" y1="21.4001" x2="164.941" y2="70.1529" gradientUnits="userSpaceOnUse">
<stop offset="0.15" stop-color="#BEBDDB"/>
<stop offset="0.2893" stop-color="#C3C2DD"/>
<stop offset="0.4612" stop-color="#D1D0E5"/>
<stop offset="0.6494" stop-color="#EAE9F3"/>
<stop offset="0.75" stop-color="white"/>
</linearGradient>
<linearGradient id="paint1_linear" x1="81.5095" y1="16.387" x2="27.3307" y2="62.1284" gradientUnits="userSpaceOnUse">
<stop offset="0.15" stop-color="#BEBDDB"/>
<stop offset="0.2893" stop-color="#C3C2DD"/>
<stop offset="0.4612" stop-color="#D1D0E5"/>
<stop offset="0.6494" stop-color="#EAE9F3"/>
<stop offset="0.75" stop-color="white"/>
</linearGradient>
<linearGradient id="paint2_linear" x1="6.31552" y1="69.0897" x2="29.9954" y2="51.1356" gradientUnits="userSpaceOnUse">
<stop offset="0.3" stop-color="#CC1D58"/>
<stop offset="0.4703" stop-color="#D54B53"/>
<stop offset="0.8324" stop-color="#EC8737"/>
<stop offset="1" stop-color="#F99E20"/>
</linearGradient>
<linearGradient id="paint3_linear" x1="-3.70662" y1="51.6344" x2="17.6199" y2="35.4647" gradientUnits="userSpaceOnUse">
<stop offset="0.3" stop-color="#CC1D58"/>
<stop offset="0.4703" stop-color="#D54B53"/>
<stop offset="0.8324" stop-color="#EC8737"/>
<stop offset="1" stop-color="#F99E20"/>
</linearGradient>
<linearGradient id="paint4_linear" x1="21.9074" y1="90.0741" x2="45.7773" y2="71.976" gradientUnits="userSpaceOnUse">
<stop offset="0.3" stop-color="#CC1D58"/>
<stop offset="0.4703" stop-color="#D54B53"/>
<stop offset="0.8324" stop-color="#EC8737"/>
<stop offset="1" stop-color="#F99E20"/>
</linearGradient>
<linearGradient id="paint5_linear" x1="9.4044" y1="73.5678" x2="33.28" y2="55.4653" gradientUnits="userSpaceOnUse">
<stop offset="0.3" stop-color="#D62745"/>
<stop offset="0.4769" stop-color="#DE5340"/>
<stop offset="0.8345" stop-color="#F08D2D"/>
<stop offset="1" stop-color="#FAA31C"/>
</linearGradient>
<linearGradient id="paint6_linear" x1="75.9007" y1="43.3854" x2="46.7263" y2="14.0313" gradientUnits="userSpaceOnUse">
<stop stop-color="#222226"/>
<stop offset="1" stop-color="#6A6A76"/>
</linearGradient>
<linearGradient id="paint7_linear" x1="54.2194" y1="41.1411" x2="51.0194" y2="34.2363" gradientUnits="userSpaceOnUse">
<stop offset="0.2808" stop-color="#222226"/>
<stop offset="0.3764" stop-color="#252629"/>
<stop offset="0.5071" stop-color="#2E2E33"/>
<stop offset="0.658" stop-color="#3C3C42"/>
<stop offset="0.8242" stop-color="#505058"/>
<stop offset="1" stop-color="#6A6A76"/>
</linearGradient>
<linearGradient id="paint8_linear" x1="58.4358" y1="54.295" x2="54.1529" y2="49.9857" gradientUnits="userSpaceOnUse">
<stop stop-color="#222226"/>
<stop offset="1" stop-color="#6A6A76"/>
</linearGradient>
<linearGradient id="paint9_linear" x1="39.795" y1="33.9846" x2="36.7925" y2="25.6842" gradientUnits="userSpaceOnUse">
<stop stop-color="#18181B"/>
<stop offset="1" stop-color="#505059"/>
</linearGradient>
<linearGradient id="paint10_linear" x1="67.9103" y1="35.2038" x2="64.6751" y2="29.5656" gradientUnits="userSpaceOnUse">
<stop stop-color="#222226"/>
<stop offset="0.1329" stop-color="#252629"/>
<stop offset="0.3146" stop-color="#2E2E33"/>
<stop offset="0.5245" stop-color="#3C3C42"/>
<stop offset="0.7555" stop-color="#505058"/>
<stop offset="1" stop-color="#6A6A76"/>
</linearGradient>
<linearGradient id="paint11_linear" x1="60.7622" y1="46.4181" x2="56.55" y2="39.0773" gradientUnits="userSpaceOnUse">
<stop offset="0.2808" stop-color="#222226"/>
<stop offset="0.3764" stop-color="#252629"/>
<stop offset="0.5071" stop-color="#2E2E33"/>
<stop offset="0.658" stop-color="#3C3C42"/>
<stop offset="0.8242" stop-color="#505058"/>
<stop offset="1" stop-color="#6A6A76"/>
</linearGradient>
<clipPath id="clip0">
<rect width="220" height="91.7447" fill="white"/>
</clipPath>
</defs>
</svg>
